<svg id="Layer_1" data-name="Layer 1" xmlns="http://www.w3.org/2000/svg" viewBox="0 0 1050.47 605.88"><defs><style>.cls-1{fill:#deaede;}.cls-2{fill:#ffc482;}</style></defs><path class="cls-1" d="M1011.48,379.24l-.52.32c0,.08,0,.16.07.24Z"/><path class="cls-2" d="M1046.63,273.22c-5.85,2.58-13.82,3.52-17.11,7.94-20.17,27.12-47.19,20.19-72.81,14.49-31.81-7.09-62.24-8.69-95-1.85-27.66,5.78-57.49,1.19-86.35,1.19q-.15-3.71-.29-7.4l35.8-19.21c-1.45-6.13-3-12.78-3.64-15.36l42-36.25c-4.09-13-10.15-22.27-9-30.62,2.67-20.12,11-39.61,12.62-59.71,1.23-15.77.06-34.56-7.52-47.7C818,31.24,777.12,6.15,728.86,0c-15.2,14-27,31.63-33.12,51.46-4.47,14.46-6.25,29.72-11.78,43.81-15.57,39.61-56.55,61.28-98.65,72.67a108.27,108.27,0,0,0,8.88,15.73c5.12,7.58,5.66,15.43-.55,21.33-12.42,0-24.84-.05-37.25.09-4.06,0-5.68-.92-6.66-5.28C521.8,74.8,407.73-7.45,280.25,5.29,174.77,15.83,85.46,95.66,63.54,199.27c-1,4.91-2.89,5.9-7.41,5.84C39.49,204.86,22.84,205,6.2,205c-2,0-4,.21-6.2.34v94.92H52.14c9.92,0,9.92,0,12.22,9.61a250.49,250.49,0,0,0,22.09,58.73c31.52-5.28,63.06-10.53,94.44-16.34a162.4,162.4,0,0,1-25.33-51.65H358.11c-30.59,14.6-56.09,35.73-67.87,75.52-5.11,17.28-12.83,33.77-20.06,52.44-3-4.28-4.49-7.14-6.65-9.3-6.94-6.91-14.12-13.55-21.21-20.3-6.39,6.71-13.68,12.78-18.95,20.27-9.64,13.67-20.66,27.24-26.22,42.62-4.71,13-7.59,30.77-2.38,42.46,13.13,29.47,39.4,49.47,63.73,69.69,7.56,6.28,21.78,9.68,31.33,7.46,34.25-8,71.75-13.82,77.9-59.48.13-1,2.49-1.67,5.55-3.59C383.71,525.7,394,535,406,540.78c21.45,10.25,43.59,24.23,66.1,25.56,20.78,1.22,38.13-2.87,51.54,18.53,4.41,7,18.29,8.81,28.23,11.6,13.4,3.75,27.17,6.15,42.06,9.41,3.16-3,7.66-10.06,14-12.67,13.27-5.45,27.92,11.25,42.24-2,3.46-3.21,12.1-.83,18.37-1-2.36-7.91-2.55-20.6-7.48-22.83-15.64-7.07-33-13.64-49.8-14.06-21-.53-31.17-10-36-27.89-3.65-13.56-5.48-27.6-7-35.6,51.09-34.6,98.88-65.2,144.64-98.58,29.22-21.32,61.38-27.8,93.45-18.14,40.4,12.16,79.54,5.74,118.64.49,28.46-3.82,55.66-13.35,80.53,9.07.48.44,3.37-1.78,5.41-3.08-6.66-24.1,6.86-40.27,21.53-56.56C1051.89,301.46,1053.81,293.28,1046.63,273.22ZM504.09,246.83q-11,4.3-22,8.54C489.3,252.21,496.63,249.31,504.09,246.83ZM155.4,204.49c17.54-59.54,70.51-114,150.36-114.4,79.68-.39,133.93,53.23,152,114.4Z"/></svg>