<svg id="Layer_1" data-name="Layer 1" xmlns="http://www.w3.org/2000/svg" viewBox="0 0 1133.28 645.46"><defs><style>.cls-1{fill:#b8f09b;}</style></defs><path class="cls-1" d="M1129.5,380.81l-.61-1.8c-2.77-.83-3.87,2.65-7.23,1.21,1.16-1.81,2.18-3.39,3.21-5l0,0-3.71-1c-1.06,2.55-3.27,3.88-6.58,3.75l-3.41-2.92c-.19,1.61-.32,2.71-.44,3.77l-3.52,1.76-1.15-1-2.18,1.27V378l-2.16,2.7-1.39-1.17-1.52,1.2-2.21-5,4.38-1c0-.31-.07-.62-.1-.93h-5.41l-2,2.78-1-.48c.45-2.5.9-5,1.34-7.47l-2.44-.89,1.71-2.82-8.12,2.13c-1-1.51-1.9-3-2.85-4.45l-6.27-2c2.31-2.92,7.08-3.36,7.59-7.79h3.91l3.62-3.79,1.46,1.1c.11-1.06.17-1.69.24-2.31l-3.21-1.53c3.74-1.25,5.87,1,7.88,2l5.11-4.09-7.19,1.11-2-2.64-2.54,1.43c-4.52-2.47-9.69,0-14.67-1.45-.09-1.5-.17-3.07-.23-4-1.32-1.6-2.34-2.81-3.06-3.67-1.4.44-2.43.74-3.44,1.1s-1.87.74-2.38.95l-7.17-4.24c-.37,1.09-.58,1.7-.69,2l5.81,4.9c-.22,1.59-.34,2.46-.38,2.72l-8.12-1.1L1054,337.5l-1.5,3.12-2.38-1.44a69.25,69.25,0,0,1-7,1c-4.2.14-8.43-.23-12.6.12-3.78.31-7.86-1.55-11.35,1.29-3.81-1.19-7.55,2.13-11.37.17-3.32,2.5-7.14.77-10.69,1.23-.32,0-.71-.45-1-.67l1.61-1.8h-4l-2,1.9c-5,.74-9.17,1.88-13.39,1.89-6.58,0-13.21,1-19.77-1.17-3.27-1.08-11.61-3.93-14.67-5.19-4.12-1.69-6.88-4.91-10.29-7.4s-7.67-3.92-11.59-5.73c-4.15-1.92-8.14-4.33-13-4.24-.38,0-.77-.39-1.16-.57-5.69-2.6-11.4-5.17-17.06-7.85a17.19,17.19,0,0,1-2.94-2.27c.62-1.38,1-2.21,2-4.33l-6.1,4.08L864,301.88l1.84-1.72L877.65,302l4.82-3.52-7.8-5.74c-2.75-.23-5.62.39-7.18-.77-3.5-2.58-7.22-2.16-10.55-2.24l-4.46-2.56,3.25-3.85-3.85-2H834.81c-1.7-1.62-3-3-4.43-4.18-2.25-1.8-4.77-3.28-6.93-5.18a39.07,39.07,0,0,0-7.11-4.8c-6.64-3.71-14.2-5.76-20-11-5.42-1.1-8.38-6.31-13.51-8-3.81-1.24-6.12-4.38-8.3-7.59-1.49-2.19-2.14-5.12-3.69-6.8-4.27-4.63-5.56-10.34-7.57-15.87-.52-1.45-1.66-2.65-1.32-4.35.55-2.71-1.25-4.61-2.35-6.73-.5-1-1.39-1.76-1.81-2.76-.68-1.58-.63-4.1-1.74-4.75-2.16-1.24.47-4.26-2.57-5.05-1.3-.33-2.25-2.39-3.15-3.8s-2.25-3.07-2.25-4.61c0-2.66-1.35-4.61-2.19-6.85a34.05,34.05,0,0,1-1.11-5.16c-2.32-2.7-4.91-5.54-5.67-8.81-1-4.39-3.35-8.09-5.39-11.79a17.38,17.38,0,0,1-2.54-10.13c-4.06-2.45-3.61-6.95-5.18-10.51a26.82,26.82,0,0,1-1.92-12.18L722,120c-.64-2.1-1.23-4-1.78-5.84-2.61-8.85-6.61-17.39-5.88-26.23-1.12-2.38-2.38-4.07-2.71-5.92a80.49,80.49,0,0,1-1.5-19.72c.16-2.22.09-4.31,1.28-6.5,1.11-2,2.13-5.11,1.35-7-2.71-6.46.07-12,1.35-18,.79-3.72,3.62-6,4.62-9.16l-2-2.2L728.09,8.13h5.42l4.29-5.46c2-.32,4.51-1.17,7.27-.23,1.8.62,3.4-.27,4.07-2.44H648.55V3.33c3.08,2.62,6.57,5.18,9.55,8.24s5.48,6.64,8.56,10.45c.87,9.2-2.19,18.88-1.51,28.81.24,3.4-1,7-1.88,10.36-.49,1.8-2.25,3.27-1.09,5.39-2.23,2.13-.73,4.84-1,7.26-.35,2.72.17,5.62-.55,8.21-1.25,4.52-2.67,8.94-2.33,13.74.16,2.31.83,5.19-.24,6.84-1.47,2.29-.75,4.42-1.15,6.58s-1.26,4.28-1.28,6.43c0,1.9,1.32,3.84,1.21,5.71-.38,6.12,1.45,12.38-1.23,18.38-.34.76.56,2,.79,3.1a15.26,15.26,0,0,1,.58,2.75c-2.61-.14-5.26,1.2-7.7,2.37-36.16,17.3-78.36-1.25-118.41-3.13-16.34-.76-32.67,1.33-48.89,3.43L329,168c-9.93,1.28-20.25,2.53-29.76-.62-3.94-1.3-7.67-3.35-11.79-3.91-9-1.23-17.22,4.8-25.22,9.2s-19.2,6.84-25.3.06c-3.31-3.68-1.41-25.23-2.6-31C214,150.22,184.39,108.67,179,80c-13.91,1.66-28,2.31-41.84,4.34-18.5,2.71-36.37,13.64-56.63.92-.47,5.47-1.38,8.56-.86,11.38,1.89,10.21-1.91,17.75-8.65,25.36-16.59,18.7-27.22,40.67-30.48,65.55-1.89,14.51-7.38,27.05-15.89,38.59-7.08,9.58-14.17,19.16-21.14,28.81-6,8.28-4.37,12.54,4.79,16.33,6.84,2.82,13.91,6,19.54,10.59,8.55,7,17,8,27,4.35s20.41-6.15,30.35-9.91c7.81-3,16.53-5.59,22.5-11,17.35-15.64,38.37-19.24,60.1-20.57,24.36-1.49,34.23,7.8,34.22,32.43,0,25.31-5.46,49-23.61,68.45-1.25,1.35-2.49,2.71-3.74,4.07a27.37,27.37,0,0,1-3.49-1.12l-.84,2.45c-2.35,1.89-4.69-1-7.2.1-3.11,1.34-5.25-1.45-7.3-2.29h-8.42l6,4.84-1.57,3.13-5.08-2.57-1.74,1.4-1.06-1.4h-2.53c-.26,1.73-.44,3-.66,4.37a14.81,14.81,0,0,0-2-1.54,13.51,13.51,0,0,0-2.35-.63c2.35-4.58-3.34-8.73.3-13.28l-2.61-1.53v4.48c-1.9,4.07-6,3.79-9,5.65l-4.37-6.16.9-5.54L118.36,342,116,337.39c.6-1.34,1.08-2.46,1.87-4.24-2.76,0-5.17.69-6.72-.18-1.82-1-3.67.22-5.41-1.06-1.07-.78-2.76-.1-2.32,2l5.7,2.09c-.26,1-.57,2.23-.9,3.55l-2.81-2.09c-1.14,2.31-2.28,4.62-3.36,6.85a7.76,7.76,0,0,1,1.21.9l-.44.45-1-1.15.21-.2c-2.62-1-3.94-3.16-5-5.53-.68,0-1.35,0-1.36.5a14.62,14.62,0,0,1-4.59,1c-.11-.93-.19-1.69-.31-2.76a42.61,42.61,0,0,0,4.9,1.77c.28-3.47,3-1,4.51-2.19.6-1.35,1.23-2.72,1.81-4.1.07-.17-.07-.43-.22-1.22a9.93,9.93,0,0,1-2.43,0,17.59,17.59,0,0,1-2.81-1.24v2.19L99.62,334c-4.51,1.51-8.32,2.15-12.21.61L85.92,336l-1.42-1.31L82.9,336l-1-2.64L78.72,333l-1.36-3.16-2.81,1.79c-1.48-1.81-3.3-3.47-6.13-2.13h0a5,5,0,0,1-2.65.77l-.12-.91L68,329c-2.46-3-4.4-3.61-5-1.95l2.19,2.74-7.88-3.39-5.71,1.89c0,.6,0,1.06.1,2h6.48c.65,3.73,3.76,3.62,5.85,4.85l-1.11,2,4.11.72a13,13,0,0,1-.06,3c-.16.6-.88,1.05-2.32,2.65l11.69-2.06.91,2.65,2.53,1-1.87,1.74-4.54-1c3.33,3.47,6,6.11,10.86,5.42l-4.74-3.16,3.63-3.62c9.73-1.54,9.73-1.54,17.35,2l-1.61,3.05,7.18,2.46,1.39,3.38h-3.61c-.42-1.11-.7-1.87-1.14-3l-6.5,2.47v3.85l-13.6-3v0h-.13l1.49,6.6-3.32.95,3,1.42c-.66,1.29-1.25,2.44-1.87,3.68l-1.39-3-2.32.56c.31,2.65.6,5.16.93,7.92l-2-.22c-.09-1.45-.15-2.54-.19-3.15l-7.89-1c-.3-.85-.58-1.66-.71-2L59.83,369l-4-.74h0l3.67,3.65a28.38,28.38,0,0,0-.61,2.87.92.92,0,0,0,1.11-.07c0,1.25,0,1.94,0,2.72l2.79,1.29-.67.77.62,5.8H57.51c-.36,1-.63,1.84-.69,2L51,389.38c-1.19-1.69-2.93-2.43-4.87-1l3,4.25-3.11,1.51,1,1.26-3.86,2.88.54.93,2.49-1,7,1.35-4.3,2.5c5.1,2.32,9,4.43,14,4-1,2.26-3.67,3-2.93,5.55l.06.05v0l2.07,1.21c2.66-2,5.27-3.95,9.78-.81L74,409v5.3l3.32,3.89,4.48-1.06,4.91,7.18a34.2,34.2,0,0,0-5,.06,8.74,8.74,0,0,0-2.87,1.45c-.22.13-.23.61-.36,1l3.37.57c.2.75.39,1.45.57,2.14-5.55.54-11.64,2.24-15.6,5.55s-6.79,10.35-6,15.11c.65,4.11,6.53,8.4,11.08,10.6,4,1.94,9.15,2,13.89,2l-.94,1H81.39c2.75,1.05,4.14,2.75,6.2,1.4.54,2.86,3,3.16,5.22,4,1.07-2.13,1.78-4.71,4.94-4.31a7.76,7.76,0,0,1,.9-1.21l.45.44-1.15,1-.2-.21c.07,1.39.07,2.72.07,4.29H103l2.9,4.44,1.63-.94L106.27,471l5.17-1.42,2.61,1.34c.92,2.49,1.67,4.51,2.21,6,4.2,2.48,8.22,1.28,13,.35L126,481.17l.68.81,4.78-3.12,5.94.41c-.76,2.45-1.58,3.92-3.83,3.92-.14,0-.27.6-.45,1l4,.63c0,2.11.1,4-.06,5.8-.06.64-.79,1.22-1.43,2.15h2.74c.73-2.75,1.44-5.47,2.13-8.11,3.69-1.18,4.63,1.57,5.86,4.33,1.87-.56,3.73-1.51,5.62-1.59s3.74.73,5.55,1.13l1.68-1.34c.44,3.85,3.74,5.56,5.29,8.67l5.59-.69-5-2.08H171c.31.53,1,1.68,1.53,2.68,2.53-1.71,3.37-4.82,6.58-4.82h0a4.85,4.85,0,0,1,2.65-.77l.12.9-2.42.48c.44.71.87,1.22,1.34,1.27a36.79,36.79,0,0,0,5.25,0,8.9,8.9,0,0,1,.91-1.21l.44.45-1.15,1-.2-.21c.08.91.08,1.76.08,3.16l5.54-1.25,2.09,3.47c2.08-1.18,4.29-2.36,6.22.41,1.26-.64,2.34-1.21,3.78-2,.3,1.11.5,1.86.72,2.66-1.82.74-3.34,1.23-4.5-.69-1.67.53-3.17,1.39-2.25,4.3l4.14-1.61,4.63,2.59,4.05-2.37,3.56,1.83-1.89,2.12,7.11-1.46c.3,1.12.46,1.76.75,2.88h5.1l2.12,2.79c4.39.13,8.57-.73,12.15,2.25-.72,2.31-1.41,4.69-5.64,5.86l4.28,4.29c-3.41-.81-7.55,4.32-11.63-.06l-1.78,1.67-1.37,1.3-2-1.43c-2.95,1.41-3.93,1.45-8.51.37.48.84.84,1.45.89,1.53-.29,1.54-.5,2.62-.83,4.34l1.9-1.64,4.3,2.21-5.95,2.29V538h3.5L218,541.3l3.53-3.13,6,1.82-6.05,1.27,5.82,1.35-2.88,1.08,5.12,5.36,6.7-1.7c.43,2.64.76,4.7,1.19,7.33l5.75-.88,7.1,2.92-1.42,2.3c4.74,4.39,10.62,1.5,16.74,3.33l-7.05,3,2.54,3.35,1.34-1.51,6.1,4.17,4.85-1.72,6.19,6.93-2.49,3,8.45.66c-3.57,1.61-7.09-.35-8.23,4l5.21-1.9v2.83l-6.7.48,2.07,4c3.47-4.79,9.5-1.24,13.15-4.15,2.49,1,4.69,1.84,6.92,2.65,3.68,1.34,4.27,4,1.33,6.56a8.78,8.78,0,0,1-2.37,1c.1.32.19.63.28,1l9.56-.67,1.27,1.34c-2.38,1.71-5.77-.94-7.71,2l-1.93-1.75c-.09,1.68-.15,2.94-.26,5.05l14.55-3.51c1.36,1.36,2.18,2.19,3,3,.91-1.44,1.83-2.89,2.44-3.84h5.24c-2.83.71-2.68,4.13-4.75,5.11a51.9,51.9,0,0,1-6.8,2.13c1.64.87,2.78,1.2,3.5,1.93a16.53,16.53,0,0,1,1.95,3l4.77.28v2.62l.32.23h.6l-.35.18,2.15,1.58-1.46,2c2.64-.36,4.72-1,6.75-.82s3.94,1.06,5.94,1.66l-1.53,1.93h7.13l4.66,2.62a15.36,15.36,0,0,0-1.25,2c-.28.72-.4,1.5-.78,3l11.54-2.88c.67,1.74,1.35,3.53,2,5.11l10.09-1.9c0,.11.58-1.18,1.1-2.27l3.81.52L371,628.33c2.46,1.24,4.64.27,7.22-.51-.64,1.74-1.19,3.22-2,5.52l7.13-4.57,6.07,2.36,6.84-1.42-1.58-2.27c3,0,5.27,0,7.57,0s4.43-.15,7-.24c-.85-1-1.27-1.44-2.42-2.74l6,1.1,1.1-1,1,2.85a10.61,10.61,0,0,1,2.51,0,14.15,14.15,0,0,1,2.62,1.31V626l-1.4-1.75,1.4-1.06,2-2.69,7.91,1.87,3.06,3.73,3-2.17c.6,1.22,1.12,2.26,1.66,3.33L436.17,629c4.12-.92,6.23.62,6.69,3.55l8-2.32.05,0,.89-1.6,4.64,2.37c.08,1.27.14,2.35.2,3.3,2.39.48,4.7-.66,6.29,1.78l2.63-4,5.77-1.73,1.33,3.11c.51-1.42.79-2.23,1.05-3,2.26,1,4,2.81,6.6,2.63.6-.46,1.19-1.32,1.8-1.34,4.38-.11,8.76-.06,13.45-.06,1.05,1.71,2,3.44,3.18,5,.31.44,1.16.5,2.22.91.21-2,.4-3.74.56-5.25,1.86-2.84,4-2.81,5.82-1.19l7-3.33-7.22-.76,3.51-5.21c5.36,2,5.36,2,8.93-.71l-1.33-1.46,1.52-1.52,9.62.87.15-.15,0,0c3.29-1.95,3.35-1.91,6.44.64l-1,3.56,2.11.12c.42-.91.86-1.86,1.38-3,.49,1.08.92,2,1.28,2.79,3.81-3.18,7.07.42,10.68.45l-2.84,3.91a7.8,7.8,0,0,1,8.08,4.09l4.82-1.39L558.81,633h0l6.19-1.27c.72.42,1.46.85,2.13,1.21a7.76,7.76,0,0,1,.9-1.21l.44.44-1.14,1-.2-.21c-1.74,1.75-3.56,3.44-5.39,5.14,2.25,1.32,3.57-.07,5.35-1.25a21.15,21.15,0,0,0,4.17-4.12c3.46,3.27,3.46,3.28,1.55,7.28v0a16.54,16.54,0,0,1,10.88,2.1c1.55.9,2-1.46,3.11-.09a12.83,12.83,0,0,0,2.65,2.08l0,0,.16.15,3.87,1.2c5.19-.66,8.2-4.52,13-7.13l6.14,7.07,1.65-5,4.45,4.16c3.25-2.54,6.12-2.14,8.54-.3l6.63-3,1.09,3.14c.74-1.77,1.31-3.36,2.08-4.84.26-.5,1-.74,1.48-1.05l4.11,2.1c.21,1.22.42,2.36.73,4.14,1.21-2.47,1.34-4.88,4.18-4.73l1.88,1.35c.4-1.19.67-2,.93-2.74,2.28,0,4.37,0,6.39-.07a8.23,8.23,0,0,1,.91-1.2l.44.44-1.15,1-.2-.21c-.16,3-3.41.23-4.13,2.27,0,.46,0,.91.09,1.84a12.14,12.14,0,0,1,2.64-1.19,17.59,17.59,0,0,1,3.22,0l4.26,3.07,3.22-4.83,4.43,1.42,2.11-2.12,8.29-1.18-1.4,3.37c2.7.54,5.11.73,6.67-1.88l-1.52-1.78h5.79l2.07,2.57h7.07c1.63.83,2.22,3.92,5.57,1.84l-4.5-3h7.45c1.71,1.05,2.3,3.82,4.54,2.09l-1.49-3.91c4.62,2.61,8.67,1.06,12.44,1.66.44-1.25.73-2.06,1.12-3.18l4.1,1.88,2.24-2.24-2.82-3c5-3.9,10.81-5.53,16.82-6.67-.47-.82-.9-1.55-1.33-2.29l-3.78,1-3.83-2,6.26-2.62c.6-2.42,1.23-4.93,1.91-7.7l2.41.52-1.76,2,4.11.61c.22,1.37.43,2.63.68,4.14l3.18-3c.47,1,.92,1.92,1.43,3l4.07-1.69-2.06,4.28v0c1.91.48,3.05-.7,4-2s2-2.92,3-4.34c.17-.24.62-.27,1-.44.15.72.29,1.36.39,1.85,1.66.73,3.2,1.86,4.82,2s3.37-.69,5.31-1.16c1.46.58,3.06,2.44,5.15.61l-1.61-1.81h5.31l4.49,4.07c3.32-1.59,6-4,10.27-2.49l5.13,5.55,9.23-2.23-4.49-2.56c2.9-1.54,4.77-1.63,7-.61-.43.94-.73,1.51-1,2.11-.17.42-.27.88-.41,1.32l.74,1.35c3.35-5.18,8.5-3.61,12.93-4.3a10.54,10.54,0,0,0-.2-2.65A36.18,36.18,0,0,0,824,616c1.1-2.16,2.13-4.21,3.35-6.62l1.3-.09c.23.5.63,1,.54,1.27-.53,1.85-1.17,3.67-1.56,5.56,3.54-.44,2.41-3.83,3.43-5.35l7.09-4.76c-.78,2-1.2,3.08-1.77,4.57h5.44l2.35,6.22c.31-1.85.53-3.12.55-3.24l3.54-4.08,1.94,5.24h0v.07l0,.06h2.53c.24-2.19.42-3.91.58-5.37l4.57,1.5-1.64-3.61,1.3-3.35,4.45,1.54-3.2-4.4c4.45,1.15,7.4,5.68,12.42,3.28a2.91,2.91,0,0,0-1.11-2.46,5,5,0,0,1-.85.21c-.2,0-.48-.5.27-.76,0-.33.85-.09,1.69.15l-.52.19a15,15,0,0,0,4.62.47L870,598.71c.47-.63,1-1.31,1.59-2.09-1.62-1.82-4.07-2.86-3.94-5.93L871,592l1.1-3c3.78,1.47,7.31,2.51,10.18,5.15.72.66,2,.71,3,1l0,0a5.6,5.6,0,0,0-2.43-6c-.09-.06.16-.62.28-1l5.68,1.78,3.17-4.87,7.69,1.82L903,584c.4,1.15.68,2,1,3,1.17-2.32,1.86-4.93,5.87-4.21a11,11,0,0,0,7.06,4c.48-1.15.85-2.06,1.69-4.1l2.27,4.07c1.26-1.9,3.29-1,4.93-1.42,1.82-.51,3.34,2.36,5.08.22l2.53,2.53h4.57c.33-1,.62-1.76.91-2.58,1.84.85,2.59,3.5,5.14,2.72l0,0c-.48-1.27-1-2.55-1.91-5,2.49,2.36,5.21,2.33,5.39,5.06,1.93-3.06,2.51-7.16,7-8.64l.37.9,177.1-195.11-2.37.65c-.38-2.82-.38-2.82,3.55-3.78l-2-2.73ZM60,375.35c0-.29,0-.59,0-.67a4.94,4.94,0,0,1,2.65-.77l.13.91Zm4.51,8.32c0-.4,0-.8-.08-1.2h2.33l.09.69Zm3.87,3.24h1.4v.46H68.4Zm2.8,17.28H69.8v-.47h1.4ZM72.6,386H71.2v-.47h1.4Zm3.74,25.69h-.47v-1.4h.47Zm7.47-1.75h-5.6v-.7h5.6ZM224.27,528l-.12-1.24h3.72l.07.71ZM803.63,273.36c6.23,4.43,14,5.93,20,10.79,1,.85,2.06,1.73,3.17,2.47a25.32,25.32,0,0,0,5,3.05c1.6.6,3.38-.19,5.11,1.31,2.27,2,5.19,3.19,8.35,5-1.23.38-1.94.87-2.39.7-4.42-1.71-9.17-2.69-13-5.64a18.69,18.69,0,0,0-10.19-4c-6.19-.36-11-3.89-16.47-5.94-1.71-.64-2.88-4-3.43-8.39C801.49,273,802.83,272.8,803.63,273.36Zm-52.36-39.84c1.18,2.54,2.05,5.28,3.54,7.62s3.89,3.63,5,6.36,2.82,4.91,4.37,7.28,3.06,4.39,4.35,6.23c.61,1.52.84,2.92,1.61,3.89,8,9.94,17.24,18.65,26.2,27.66a14.2,14.2,0,0,0,3.07,2.75c2.27,1.23,5.79,1.53,6.81,3.34,1.45,2.57,3.88,3.72,5.8,4.87,2.47,1.48,4,3.76,6.18,5.27a34,34,0,0,0,3.57,1.83l8.19-4.17,4.34,2.29-8.06,16.45c-2.31-.69-4.2-1.13-6-1.83-7.83-3.06-16.09-5.27-23.19-9.86-9.29-6-18.78-11.95-25.64-20.8a103.4,103.4,0,0,1-16.56-30.22c-1.62-4.64-4.83-8.71-7.28-13.07-2.22-4-4.16-8.13-6.65-11.93-2.23-3.4-4.12-7-6.44-10.37,3.79-1.77,7.61-3.47,11.47-5.06.22.5.45,1,.67,1.51C748,226.94,749.72,230.2,751.27,233.52Zm-61.45,138,3.51,1.64c0,.58-.06,1-.08,1.5l-7.19,1.83c-3.74-1.78-7.82-3.74-11.92-5.66a12.47,12.47,0,0,0-3-1.13A12.94,12.94,0,0,1,661,362c-3.3-6.64-4.25-13.49-.26-22.55-.49-.88-.91-1.63-1.48-2.67l4.9-3.27,4.43,3.69-4.47,3.63,13.32,2.4,2.46,2.45,1.36-1.13,4.1,3,.71-.6L684.67,344l2-2.08,5.22,5.32c-.24,7.15,4.93,13.91,5.83,21.7Zm4.41,12-9.5-5,7.75-.43C694.58,379.54,695.48,381.18,694.23,383.44ZM665.13,404l-2.2,2.33-1.76-1c-.48-5.8-1.3-10.53,1.54-14.3C664.89,395.73,665.89,399.74,665.13,404Zm-4.87,3.29-.44-.45.44-.37C660.55,407,660.41,407.16,660.26,407.33Zm5.34-91.67c1.12-5,2.68-9.83,2.51-14,1.86-5,3.36-9,4.93-13.22h2.16c-.82,5.44,1.57,9.91,3.95,15.3-.54,4.45,2.91,8.62,4.2,13.41s2.3,9.77,5.58,13.72v6.4c-5.83.59-8.34-4-12.18-7.2L673,332.87c-.11-.07-.61-.19-.69-.45-.51-1.63-.93-3.28-1.39-5L665.29,329v2.76c-2.95-2.41-2.95-2.41-1.4-4.16C662.87,323.41,664.74,319.49,665.6,315.66Zm3.68,15.89H667l-.11-.66,2.28-.55C669.17,330.75,669.22,331.15,669.28,331.55Zm-37.45,65c-.06.68-.13,1.41-.19,2.16a14,14,0,0,1-3.93.37c-.09-1.68-.19-3.39-.28-5l3.68-1.53c-.24-.05.14-.06.39.11,1.43,1,2.83,2,4.5,3.21Zm2.91,4.92-4.38.55c.5-1.07.87-1.86,1.34-2.89A9.64,9.64,0,0,1,634.74,401.44ZM610.8,387.86l2.68.18c-.85,1.31-1.49,2.31-2.14,3.3l-.3-.29.38.14A5,5,0,0,1,610.8,387.86Zm-2-2.88L606,380.85l-2.25,1.31c-.13-1.65-.14-3.19-.14-4.65l8-4.75,6,3.86.08-.08,3-3.93h5.1a5.42,5.42,0,0,1-.46,1.15,46.08,46.08,0,0,1-3.58,4.72c-2.29,2.37-4.78,4.55-6.85,6.5ZM611,365.42v-2.8h.7v2.8Zm12.21-10.65,2.42-2.3c3.09,1.47,4.64,4.46,7.29,6.24l-2,4.16-7.82-2.23c.56-1.37,1.09-2.69,1.66-4.08Zm12-.22c-.36-.86-.59-1.44-1-2.33l5.14-2.55c.36.86.59,1.44,1,2.33Zm3.28,25.84a13.67,13.67,0,0,1-1.27-6.06l2.28-.72C640.53,376.15,640.6,378.32,638.46,380.39ZM638,334.65c-.57.51-.51,1.72-1.08,2.24s-1.46.35-2.22.49l-.62-1.46,5.75-6.05,3.24,2.66a21.6,21.6,0,0,0-2.22.68A10.05,10.05,0,0,0,638,334.65Zm-2.34-14.77c-1.06,1.32-2.43,3-5.25,3.18.88-1.29,1.83-2.54,2.61-3.89s1.32-2.69,2.64-5.43Zm-5.77,70.64h-2.23v-4.13C628.85,388.55,629.35,389.46,629.92,390.52Zm1.7-.65c.11-1.05.25-2.27.43-4,4.14,1.94,6.11,5,7.88,8.39C636.32,394.59,634,392.44,631.62,389.87Zm6.35-8.34.47-.49a12.86,12.86,0,0,1,3-.05c-.07,1-.12,1.74-.18,2.67Zm3.33-38.16h3v2l-2.46.51C641.63,345,641.51,344.38,641.3,343.37Zm-1.16-3.4c1.24-2.65,3-3.06,5.42-2.22V340Zm4.14-7.24v-.47h1.4v.47Zm1.14-32.91,6.8-11.61,1.88,3c-.69,3.94-1.36,8.9-4.65,12-3.74,3.51-6.4,8.34-11.63,10.26,1.16-2.25.78-5.86,4.83-5.45M541.06,420.07h.46v1.4h-.46Zm-.94,12.66c-3.39-.58-7.27,1.27-10.51-1.71,2.16-2.42,3.84,0,5.72.27l4.5-3.43C539.94,429.73,540,431,540.12,432.73Zm-2.8-74.32v1.41h-.47v-1.41Zm-2.92,28.38-4.75,2.3c-.12-.71-.23-1.33-.4-2.3Zm-17.75-38.92c-.27-.89,0-.48,0,0Zm-361.72,24-4-1.37,2.72-2.8c.52,1.56.95,2.83,1.38,4.09Zm14.92-19,.67.78a1.41,1.41,0,0,1-1.11-.34Zm-6.17,5.94h1.4v.47h-1.4Zm-8.78.68c.24-.88.6-2.24.64-2.41h4.8a19.06,19.06,0,0,1,1.76,6.58l-3.41,3.88c.35-2.18.7-4.34,1.1-6.84l-3.95,1.41L153.35,361c-.54,1.11-1,2-1.74,3.54-.54-3.83-2.78-5.14-6.05-5.27C148.53,358.38,151.39,357.73,154.9,359.56Zm-12.24,6.33h1.4v.46h-1.4Zm-5.73-.49c1.23.48,3.14.65,3.5,1.48,1.36,3.15,5.38,3.67,6.7,7.32l1.53-1.41,2.94,2.93-1.65,1.9c-.52-.53-1.09-1.09-1.73-1.73v3.71c-.48.55-1,1.11-1.45,1.66l-2-3.15-1.41,1.29c-.5,0-1.15.2-1.39,0-4.47-4.38-8.89-8.81-14.19-14.1,2,.48,3,.47,3.74,1C133.68,367.81,135.22,366.17,136.93,365.4Zm-50.08,6.68v-3.9l4.31,4.64-.5.75ZM89,418.66v1.41h-.47v-1.41Zm4.8-45.4,1.14-1,.15.15h0a3.94,3.94,0,0,1-.83,1.27Zm34.43-3.64V371h-.47v-1.41Zm6.12-7.84-2,2.14-5.24-3.35C130.19,358.53,131.91,361.26,134.3,361.78Zm-8.2-7c1.27-.78,2.75-1.22,4-2s2.42-1.71,3.87-2.76v7.37l-2.72-1.19-5.37.95C126,356,125.79,355,126.1,354.76Zm2.37,29.39c1-.82,1.67-1.34,2.33-1.86l1.93,3.79c-2.92.82-6,0-8.88.46l-2.15-2.15,1.35-1.5-2.9-1.32,3.81-1.92Zm-5-21.53H124V364h-.47Zm-2.09,4.44.1.69-2.34.51c0-.4-.06-.8-.08-1.2Zm-8.91-17.67-3.32-1.19c0-.89-.12-2.15-.23-4.18l3.84,1.48c.28-.68.6-1.48,1-2.36h2.38c-.6,2.2-1.14,4.15-1.79,6.5l4.35.67v4.19l-2.24-1.85-.71,4.08a4.19,4.19,0,0,1-1-.33,44.85,44.85,0,0,1-4.33-3,22.56,22.56,0,0,1-2.57-2.92Zm6.33,13.7v.46h-1.4v-.46Zm-7.2-1.66c-1.71-1.26-2.94-2.18-2.41-4.62C110.94,358.07,112.17,359,111.64,361.43Zm-6.48-14.19c0-.4,0-.8-.07-1.2h2.32l.09.69ZM94.89,361.07l.28.27a2.22,2.22,0,0,1,.68-1.39l.44.44-1.14,1-.28-.27a2.17,2.17,0,0,1-.68,1.4l-.44-.44ZM85.78,360l1,1.14-.15.15v0a4.23,4.23,0,0,1-1.27-.83Zm.83,5.24v-3.75a31.46,31.46,0,0,1,3.19,2.11c5.86-.82,9.41,4.63,15,3.85v-2l-5.43-1.68c-.28-2.7-.86-5.26,2.56-6.79l4.25,2.07-1.56,1.74,1.58,3.26c2-.84,3.64-2.57,6-.42,1.36,1.22,3.47,1.62,5.3,2.42-.17.79-.31,1.42-.52,2.37l-8.76-3.12-.91,2.15c4,1.92,7.91,3.63,12.54,3.79.14.59.28,1.22.51,2.25l4.25.83-2.2,2.2-2.93-1.66-.92,2.38,3.54,1.7c-3.54,0-3.29,3.32-5.31,4.58h-4.74c-.15-.76-.29-1.39-.5-2.43l-2.5,1.18c-1.58.09-2.85-3.12-4.59-.41L94.45,377a23.94,23.94,0,0,1,1.88-1.74,8.16,8.16,0,0,1,1.46-.72c.26-2.63-1.38-2.06-2.62-2.1.21-3.72-3.5-4.5-4.74-6.86Zm15,99.71h-.47v-1.4h.47Zm45.73,21.17c-.18-.85-.34-1.62-.83-4l3.56,3.46Zm8.32-1.51-.08-1.2h2.32c0,.23.06.46.1.69Zm91.67,30.95-1.7-1.5-2.76,2.76-3.9-.31,5.11-5.11h5.58C248.66,513,248,514.25,247.28,515.51Zm34.63-116.29-4.6-2.11v-3.24l.66-.29,1.14,2.79,3.34-1.14,1,2.44Zm-3.34-9.05v-.46H280v.46Zm11.71,3.94c-.26-1.4-.4-2.18-.6-3.24h5Zm11,8.88v-3.72l.74-.06c.16,1.25.33,2.5.5,3.75Zm15.17,189H315v-.47h1.4Zm4.53,15.94c-.17-.88-.29-1.51-.53-2.74h4.12c.14.71.26,1.33.47,2.42Zm5.28-13.14h-1.4v-.46h1.4Zm0,19.86c3.31-3.39,3.31-3.41,7.62,0Zm12.46-11.22h-8c2.49-1.6,4.86-3.69,8-2Zm15.5,13c-1.17,2.72-2.43,5.4-3.49,7.71-.92-.92-2-2-3-3,.37-1.25.78-2.68,1.31-4.49l4.84-1.47C354,615.59,354.33,616.1,354.2,616.41Zm4.69,11.47c.12-3,.12-3,3.09-4.24Zm9-149,1.61-2c-.33-.41-.72-.87-1.52-1.83l5.91-.37C373.75,478.56,371.59,479,367.91,478.86Zm8.39.05h-.7v-2.8h.7Zm-5-49.57c-.06-.35-.14-.77-.28-1.51l6.42-2.29,1,2.28Zm27.86-.73a14.1,14.1,0,0,0-2.64-1.49,8.28,8.28,0,0,0-2.53-.05l-1.13-3.18-8.62,2.73-5.49-1.83c7.51-1.47,13.76-5,21.52-4.72l3.35,6Zm5.3-23.11c-3.65,1.82-7.48,4.32-11.32,4.48-4.89.2-8.56,3.8-13.35,3.48-9,4.73-19.1,3.3-28.63,5.08-4.06.75-8.37.14-12.57.1-.37,0-.74-.43-.94-.55-.26-1.33-.49-2.53-.87-4.55l-5.35,4.38c.67-3.79,1.13-6.4,1.74-9.89l-7.87,5c-.38-1.06-.66-1.87-.95-2.68L322,411.66c0,.83-.09,1.66-.18,2.78l-2.67-.18,2.13-3.3c.25.24.5.47.72.7,0-.94,0-1.87,0-2.8l-1.4-1.4L317.35,406l1.53,3.74c-1.47,2-3.1,2.84-5.46,1.09v-3.12c-2.4-.28-4.73-.3-5.52-3.08h-2.4c-.12-1.16-.24-2.38-.4-3.93l2.71-.28c0,1.63,0,2.92.09,4.21h3.29l-1.55-3.94L315.1,397l-2.44-2.44h-4.49l-2.5-4-3.05.23c-.24,1.13-.37,1.76-.65,3.14L299,389.7l6.48-.94-.85-2.32a62.49,62.49,0,0,1-6.44-.05,56.58,56.58,0,0,1-5.77-1.12l-7.76,4.05,4.18,2.42h-3.95c-1-1.51-1.86-2.78-2.44-3.63a31.33,31.33,0,0,1-7.25-1.47,82.39,82.39,0,0,0,12.14-19.71c6.71-15,15.07-29.28,23.18-44.83,19,20.25,38.25,39.37,46.75,65.22,1.55,4.72,2.9,9.5,4.11,14.33A408.74,408.74,0,0,1,438.74,375c0-.46,0-.91,0-1.36-.18-12.44,0-24.88,0-36.08l78,10.4c-.29,2.48-.67,5-1.08,7.43l-.27,1.65-2.93-.24,1.57-2-4.18-3.42a4.16,4.16,0,0,0-3.64,1.4c-1,.93-2.61,1.24-3.94,1.82-.71-1.48-1.15-2.41-1.94-4.08-1,1.48-1.66,2.42-2.43,3.56H494.3c-.8-.95-2.08-2.58-3.53-4.05-.27-.27-1.23.15-3.55.5a37.72,37.72,0,0,1,4.24,3c.28.26-.09,1.21-.17,1.93L488.42,354l-1.76,1.53-2.92-2.76h-4.33l-2.13-3,2.08-2.65-6.3.42v3.92l-2.31-1.54-4,2-2.7-3.7c-.43,1.89-.73,3.21-1.17,5.18-.63-1.56-.94-2.36-1.28-3.19h-2c-.21,1.39-.4,2.68-.65,4.31l-7.26-1.86-2,2.32,1.11,1.36-2.67,2.87,2.22,2.21h4.36l.94,2.74,1.73-1.57c1.12,1.44,2.22,2.86,3.39,4.21a8.83,8.83,0,0,1,1.21.9l-.45.44-1-1.14.21-.2c-1.86.07-3.66.07-5.54.07v2.64c3.36-.14,5.55,1.49,6.88,4.37-2.59-.84-3.31,1.89-5.06,2.65l-.76-.76-4.14.75,2.08-3.19L451.07,371c-.07,1.13-.13,2.22-.22,3.76l-5.57,4.4c.11.35.29,1,.5,1.68,3.23.1,5.47-4.3,9.53-2L452.07,380l3.52,1.75a18.77,18.77,0,0,1,2.89-.89c.23,0,.56.58,1.07,1.15-1.12,3.07-4.21,3.34-6.95,4.91a5.82,5.82,0,0,0-7-1.44l1.53,4.54-4.22-2.1-2.76,4.26-6.72-1.67,2.31,2.54-5.51.71-.87,2.64h-5.9c-3.64,3.91-8.15,4-11.89,4.09C408.83,402.46,406.8,404.31,404.43,405.5ZM509.3,355.61V357h-.47v-1.4Zm-8,36-2.26.44c1-1.24,1.56-1.3,2.14-1.35Zm-3,1.52a4.35,4.35,0,0,1,.22.86c0,.2-.49.48-1.59,1.5C497.44,394.53,497.9,393.77,498.29,393.15ZM497.9,392l.09.23C497.53,393.36,497.71,392.71,497.9,392ZM480.05,445.4l2,2-5.3,1.78a2.69,2.69,0,0,1-.61-1.78ZM475,375v-2.32l.69-.1c.18.79.35,1.58.52,2.37Zm1.63-20.76v-1.4h.47v1.4Zm2.81,1.4v-1.4h.46v1.4Zm3.38,95.15v2.18l-1.85-1.86Zm-14.48-74.48,4.75-2.31c.13.72.24,1.34.4,2.31Zm3.49,20.54-1.14,1-.15-.14h0a4.11,4.11,0,0,1,.83-1.27Zm-3.69-37.28c-.64-1.85-.82-3.3,2.85-1.79Zm4.29,12.89V371h.47v1.4Zm-14.35-14.84.44-.45,1,1.15-.17.17,0,0A4.11,4.11,0,0,1,458.05,357.59Zm1.19,1c2.24.4,3.05,1.81,2.89,3.87a43.41,43.41,0,0,1-4.26-1.41Zm2.89,4v0a4,4,0,0,1,1.27.83l-.44.44-1-1.14Zm1.4,12.61c.83,0,1.65.09,2.78.17-.07,1-.12,1.74-.18,2.68l-3.3-2.13C463.06,375.68,463.3,375.43,463.53,375.21Zm1.4-1.85v-.47h1.4v.47Zm-3.07,5.83h-3.72l-.06-.73,3.75-.51ZM413.08,622.77h-1.4v-.47h1.4Zm2.81-163.94h-1.4v-.47h1.4Zm13.66,34.74-1.86-1.86,1.86-.32Zm3.31-54-.12-.91,2.25-.44A2.24,2.24,0,0,1,432.86,439.6Zm3.15-1.29a2.28,2.28,0,0,1,2.13-1.35c0,.3.09.61.13.91Zm18.44-25.55c-1.81.83-4.6-.47-7.34-.85l-.87,4.36-7.18-3.44c-.23.24-.47.48-.7.73l1.22,1.6c-.84.67-1.76,1.38-2.68,2.1a4.28,4.28,0,0,1,1.28.83l-.45.45c-.32-.39-.65-.77-1-1.15l.27-.27c-.86.57-1.59,1-2.57,1.58-.22-1.35-.43-2.63-.66-4.07h-3.62v4.89l2.68,1.26c-3.62,1.19-7.19,2.14-10.56,3.55-3.15,1.32-6.1,3.14-9.81,5.09l-4.15-11.68a87.47,87.47,0,0,0,9.16-2.9,63.64,63.64,0,0,0,7.27-4.37l2,1.08c.2-.86.34-1.5.6-2.69,1,0,2.19.33,3.11-.06,3.78-1.58,7.67-2.91,11.42-4.46a112.06,112.06,0,0,1,18.69-5.56,65.08,65.08,0,0,1,9.72-1.12,42.63,42.63,0,0,1-2.72,4c.29.56.69,1.32,1.18,2.29a1.74,1.74,0,0,1-.33.67C464.56,408.68,459.33,410.53,454.45,412.76Zm7.68,51.79h-2.81v-.7h2.81Zm.43-5.95c-.15-2-.15-2,1.89-1.55Zm-.19-7.63a6,6,0,0,0,1.19,2.2l-3.35,2.4c-1.9-3,.38-3.69,1.61-4.66a4.11,4.11,0,0,1,.31-.29l0-.82c.05.27.1.5.15.72a3.92,3.92,0,0,1,2.53-.95l.12.91Zm2.09-29.92c1.55-1.14,2.62-1.93,4.2-3.11C467.59,420.89,467.59,420.89,464.46,421.05Zm3.12,42.33.15-.94h6.81l2.67,4.08Zm8.09,8.53h-.47v-1.4h.47Zm1.72-4.33a4.94,4.94,0,0,1-3.92,1.44c0-.31-.06-.62-.08-.93l4.13-.54v.16Zm.32.24a2.61,2.61,0,0,1,.66-1.39l.44.45C478.44,467.19,478.07,467.5,477.71,467.82Zm-11.63-16.09c2.06-1.66,5.08.22,6.35-1,1.63-1.55,2.8-1.31,3.85-.7.38,2.42-1.33,3.17-3,3.92l.21,1h12C477.5,457.91,470.82,456.61,466.08,451.73Zm17.42-6.39-.14-1.22h2.33c0,.23.07.45.11.67ZM508.62,452c-2.5.29-4.68,1.07-6.68-1.24l-3.15,4.67-9.39,1.5c-1.19-3.07-2.2-5.65-3.25-8.34l3.28-3.27h2.85c.43-.94.88-1.9,1.31-2.83h2.12l0,0v-2.59l10.84,3.45,1-2.25,1.59,1.59c-.28,1.31-.55,2.66-.86,4s-.65,2.46-1,3.93C507.44,450.68,507.87,451.17,508.62,452Zm-6.8-15.11v-1.4h.47v1.4Zm7.49-8c-1.5-.64-3.69.32-6.21.63l-3.46-5.28h4.5l.15-.15h0c5.14-5.63,8.89-7.87,13.83-8.26v-.13l.06,0v-2.91c4.82,1.59,9.05,3.09,13.36,4.34a13.43,13.43,0,0,0,3.84.05l3.76,4.14c0,.08-.27.83-.54,1.68-2.94-.34-4.07-4.72-7.43-2.69-1,2.25.1,2.88,2.27,2.42v3.71c-1.65,1.65-4,.3-6.28-3.52l-1.84,1.84,1.53,2-2.4,3.37-3.08-1.7C517.57,430,513.62,430.76,509.31,428.92Zm5.59,29h-.46v-1.4h.46Zm-.8-23.25.44-.44,1,1.14-.13.12A5.73,5.73,0,0,1,514.1,434.65Zm2.2,16.24h-.46v-1.4h.46Zm-.93-14.76.47-.17C516.82,436.54,516.1,436.34,515.37,436.13Zm.77-.28a5.84,5.84,0,0,1,1.19-.32c.2,0,.48.49,1.43,1.57C517.61,436.57,516.77,436.17,516.14,435.85ZM524,453.46c0-.24,0-.48-.07-.73l3.71-.52c0,.42.05.84.08,1.25Zm5.67-15.57c-.69-1-1.78-2.47-3.38-4.67-.64,1.46-1,2.32-1.42,3.27-3.62-.5-6.38-2.89-9.53-4.51,3.35-2.72,4.63,1.24,7.26,2.43l3.31-3.13h3.37c.08,1.26.08,1.68.08,2.19l14.11,2.75Zm11.55-80.54c1.63-4.15,4.21-5.57,6.77-8.62.72,1.73,1.17,2.82,1.69,4.1C548.34,354.72,545.78,356.4,541.24,357.35Zm11.49,50.11h-.46v-1.41h.46Zm-2-57.79c.44-5,5.13-5.18,8.6-9C558,346.83,553.21,347,550.75,349.67Zm10.39,31.16h-.47v-1.4h.47Zm5.6,47.64h-.46v-1.4h.46Zm.47-45.18h-2.8v-.7h2.8Zm18.22-33.75H584v-.47h1.4ZM599.7,387.6c0-.24-.05-.48-.07-.71l3.67-.53c0,.41.08.82.13,1.24Zm3.94-5.37a4.09,4.09,0,0,1-.83,1.28l-.44-.45,1.15-1,.14.14Zm.09,9,2.12-2.13,4.66,1.73a15,15,0,0,1-3.47,5l-3.35-1.68,1.26-1.44Zm3.39,38.38c-.45-.84-1.15-2.16-1.88-3.51,2.2-1.13,3.83-.4,5.29,1.57Zm3.29-7-4.76-4.3,3.8-1.78-3-2.22,3.54-7c3.13.73,4.31,3.65,6.74,5.37l-6,5.1C610.62,419.26,610.55,420.34,610.41,422.63Zm2.26-5.11,4.67-.3c.17.88.28,1.5.57,3Zm7.79-7.26a4.11,4.11,0,0,1-.83,1.27l-.45-.44,1.15-1,.14.14Zm-2.86-6.06,1.69-2-3.91-.54c0-.32-.2-.73-.06-1,1.72-2.77,3.48-5.51,5.33-8.43h4c-.09.88.08,1.71-.25,2.08-1.49,1.67-3.62,3-2.14,5.76,2.57,1.37,2.19-1.08,3.32-3,.29,2.23.49,3.79.73,5.67l-4.26.71c-.06.65-.12,1.36-.22,2.52A10.92,10.92,0,0,1,617.6,404.2Zm8.46,8.86a3.94,3.94,0,0,1-.83,1.27l-.44-.44,1.14-1,.14.14Zm5.61,226.64h-2.81V639h2.81Zm-4.21-224.3v-.47h1.4v.47Zm11.21-5.77L634.86,413c-1.61-.8-4.23,1.4-6-1.31l-.07-.07h-1.38c-.6-1.27-1.2-2.54-1.8-3.83l-3.8,1v-2.05c1.84-.8,3.58-.35,5-2.14,1.68-2.18,3.72-2,5.59-.13.54-.44,1-1.09,1.59-1.23a12.11,12.11,0,0,1,2.78-.06c.65,1.65,1.3,3.21,1.87,4.81A5.68,5.68,0,0,1,638.67,409.63Zm2.8-5.33h-2.8v-.7h2.8Zm2.47-2.62h-6l.6-.51-2.85-1.33c.35-1.07.4-1.78.62-1.84a4.83,4.83,0,0,0,3.86-3.33l.12.24C642.42,396.78,645.43,398.07,643.94,401.68Zm6.87-11h-.46v-1.4h.46Zm-.15-2.84-2.3-.2,1.51-2-4.06-1v-1.89l3.67-1.33-4.93-.79-2.7-12.13,3.4-2.5c.24,2.95.42,5.12.59,7.32l5.4,5.4-1.49,1.63C650.28,382.66,652.57,384.94,650.66,387.8ZM657,409.36a11.14,11.14,0,0,1-2.1,1.13c-2.08-2.76-.46-4.3.78-5.37l3.24,1.82A17.73,17.73,0,0,1,657,409.36Zm7.8,10.71h-.47v-1.41h.47Zm7.47-6.31-9-1c-.55,1.15-1,2.09-1.47,3H660c-.1-1.18-.22-2.43-.34-3.8,2-.34,3.77-.59,5.49-1,.39-.08.7-.55,1-.83l6.14,2Zm8.41-12.38H679.3v-.46h1.41Zm5.86-2.57c0-.22-.07-.44-.11-.67l2.29-.54c0,.4.09.8.14,1.21Zm8.85-2.75-3.91-3.24-4.93,3.39h-3.92c-3.2-4.91-10-8.21-7.62-14.82-1.33-3.43-2.25-5.8-3.58-9.21,6.21,2.83,11.1,5.19,15.16,9.41,2.46,2.55,6.21,3.87,9.49,5.81l-3.94.74-.46,2.21-5.34.65c4,.7,8.06,2.33,11.79-.89.71,2.24,1.26,4,1.88,5.95Zm23.12,132.83h-1.4v-.47h1.4ZM721,328.05c-4.49-4.43-7.09-10.16-10.79-15.12a34.16,34.16,0,0,1-2.86-4.4c-1.93-3.61-3.74-7.29-5.65-11l2-2c5.42,4.68,9.92,9.94,12.07,17,.49,1.61,1.91,2.92,2.71,4.46a85.36,85.36,0,0,1,4.17,8.75,17.78,17.78,0,0,0,4.07,6.72,9.73,9.73,0,0,1,2.44,3.85c.77,2.53,1.18,5.16,4.95,6.75L730,345.4c-1.92-3.76-6.23-6.79-6-12.4C724,331.37,722.36,329.39,721,328.05Zm5.48,303.59H726v-1.4h.47ZM737.2,369.12,730,359.79l5.18.95c.06-.42.15-1.05.28-2h-7.66c-1.65-2.33-3.19-4.48-4.81-6.76l2-2.07c2.32.6,5,3.33,7.2,0l5.68,2.06c.46,1.55,1.81,3.81,1.23,4.56-1.48,1.9-.2,2.61.39,4.07a6.79,6.79,0,0,1-.45,4.95Zm9.45,4.86-2.56-1.66-4,1.76c-1.51-3.93,1.32-5.95,2.53-9.11l6.93,6.93Zm2.42-6.7-4.34-4.34c-.28.24-.57.47-.86.7-.81-4.43-1.62-8.87-2.53-13.88,1.08.52,2.2.74,2.79,1.41,1.47,1.66,2.63,3.57,4,5.31a29.36,29.36,0,0,0,8,7.54c2,3.72,7.27,4.94,10.54,9.14l-9.8,1.92-1.55-1.95c1.85-1.31,1-2.95.05-4.58,2.23-1.7-1.92-2.88,0-4.93a15.26,15.26,0,0,1-4.18.4Zm18.2,9.32c.16.88.28,1.5.5,2.72h-2.3Zm-15.93-7.11-.45-.44,1.15-1,.27.27A2.18,2.18,0,0,1,753,367c.14.15.29.3.44.44l-1.15,1-.27-.27A2.22,2.22,0,0,1,751.34,369.49Zm.83,11v-.7h4.2v.7Zm11.21,5.77c-2.83-.17-5.57-2-8.39-3.1l5.31-3.67,5.53,1.79c.23.67.52,1.47.94,2.66l3.49-1.68,5.07,2.44C770.72,385.37,767,386.47,763.38,386.25Zm8.87-8.22v-1.4h.47V378Zm.87,10.6c1.3-.94,1.72-3.1,4.33-1.58C776.15,388,775.72,390.15,773.12,388.63Zm16.41,7.62h-.47v-1.4h.47Zm-2.69-8,2.73-.52c.18.85.34,1.62.83,4Zm8.33,12.5c-.86-1-1.78-2-3.67-4.23h7.42Zm8.13-12.9a170,170,0,0,0-23.17-16.76c-6.64-3.93-12.86-8.46-19.12-12.94-.73-.52-1.74-1.34-1.75-2,0-3.17-2.71-4.67-4.41-6.42-4.12-4.22-6.94-9.17-9.45-14.5l1.25-1.68c6.51,4,12.82,8.26,19.06,12.61a23.69,23.69,0,0,1,3,2.94c5.11,5.11,10.46,10,15.27,15.41,3.84,4.3,8.88,6.85,13.36,10.19,2.49,1.85,6,2.38,8.95,3.48.63,4,1.25,8,2,12.44-1.09-.52-1.93-.88-2.73-1.32A13.33,13.33,0,0,1,803.3,387.81Zm-58-55.45c.15-.14.29-.29.44-.44l1,1.15-.05.05A3.1,3.1,0,0,1,745.29,332.36Zm59.65,289.47h-.46v-1.4h.46Zm1.23-214.38c-2.82-2.39-3-4.47-.46-6.6l8.4,3.21C812.45,407.55,809.39,407.52,806.17,407.45Zm5.74,204.86h3.17l3.79,4.2Zm29.5-217.2c-2.37-.8-4.56-1.17-5.49-4-.66-2-2.72-2.18-5.09-1.73A10.83,10.83,0,0,1,832,392a21.18,21.18,0,0,1,0,3.58l-4.43,2.21-5.38-4.32c-.85,2.49-2.49,1.48-4,.88a13,13,0,0,1-1.59-.88l-.94,1.17-.46-1.17-5.37-5.37v-8.33A158,158,0,0,0,837.54,387l8.71,4.46C845.56,394.06,843,393.92,841.41,395.11Zm6.86-17.21-1-1.14.14-.14h0a4.09,4.09,0,0,1,1.28.83Zm3.38,230.86h-1.4v-.47h1.4Zm1-239.24-5.58-5.11a5.57,5.57,0,0,1,1.42-1.33C853,365.08,852.86,366.76,852.68,369.52Zm2.17-8.33c-.2-1.18-.41-2.44-.71-4.25-3.36.77-6.3-.41-8.37-4l-.85,1.49c.5,1.23,1,2.46,1.41,3.45l5.51,2.13c-.94,2.24-3.7.06-4.3,2.12a15.58,15.58,0,0,1-3.93-.92c2,4.2,2.87,8.87,8.76,10.56l-3.8,1.32-3.21-.8c1,2,1.5,3.14,2,4.23-2.51.16-4.83.16-7-1.22-3-1.87-6.61-1.95-10-2.84-8.54-2.28-17.13-4.4-25.07-8.43a25.8,25.8,0,0,1-2.9-2.05l1.6-6.34c-2,1.27-4.06,2.61-6.07,4-7.65-3.95-11.27-12-17.7-17.27s-12.19-10.86-18.72-15.72c-8.62-6.41-17.72-12.18-25.37-19.84-1.22-1.22-3.33-1.72-4.21-3.08a8.81,8.81,0,0,0-3.44-3.41c-1.26-.67-2-2.38-3-3.58-1.16-1.39-2.16-3.57-3.59-3.92a7.48,7.48,0,0,1-4.68-3.76c-2.39-4.13-6-7.56-7.13-12.42a7.6,7.6,0,0,1,0-1.52c-2.43-2.48-4.8-5-6-8.6-1-3-3.82-5.39-5.12-8.37s-2.58-6.13-3.8-9.24c7.86-4.93,15.8-9.62,23.87-14a22.61,22.61,0,0,0,1.95,2,6.82,6.82,0,0,0,2,1.08c2.38,4.29,3.88,8.28,6.46,11.37a74,74,0,0,1,8.76,13.92c1.69,3.3,3.17,6.68,5.82,9.56,1.59,1.74,2,4.76,2.46,7.29.39,2,.08,4.16.08,6.38l2.63.92v4.32c6.65,6.65,13.14,13.66,20.19,20,6.54,5.92,14.08,10.53,21.72,15s16.34,6.36,24.95,10.25c-5.3,5.89-10.86,10.93-12.17,18.61,1.06-.85,2.37-1.54,2.87-2.61a40.27,40.27,0,0,1,11.14-14.5c1.12,1,2.66,1.74,3.38,3,1.68,2.92,5.31,2.2,7.31,4.33,4.79-1.4,8.64,1.79,12.62,3.19,6.84,2.41,13.19,6.24,19.67,9.62a3.67,3.67,0,0,1,2,2.54C859.71,360.86,857.34,361.3,854.85,361.19Zm8.75,1.31a6.73,6.73,0,0,1,4.82.76l-1.84,2-1.44-.81-2.71,2.66C862.71,365.39,862.84,363.7,863.6,362.5Zm-6.51,6.27,2.92-1C860.59,369.07,859.73,369.66,857.09,368.77Zm4.37,8.79h-1.41v-.46h1.41Zm1.15-1.66-3.22-4.32,3.22-.7Zm4,226.32h-.46v-1.4h.46Zm-2.16-231.88c0-.24-.11-.85-.26-1.93l4-.23c.17.89.28,1.51.4,2.16Zm6.37-.72h-.47v-1.4h.47Zm7.34.72,2.75,2.53a4.19,4.19,0,0,1-2.33,1.15C878.44,373,878.36,372.23,878.14,370.34Zm2.57,7.78c.22-.43.43-.86.65-1.28h3.7c.08,1,.17,2.26.26,3.55C882.16,381.67,882,379,880.71,378.12Zm3.63-2.89v-1.4h.47v1.4Zm3.6-4.2a20.79,20.79,0,0,0-4,.06,10.14,10.14,0,0,0-2.64,1.29c0-1.68,0-2.86,0-4.27l6.7,2.13C888,370.5,888,370.76,887.94,371Zm3.23-27.2c-2.62,2.27-4.67,4.79-8.35,5.19-.56.06-1,.75-1.48,1.08-3.9-1.26-6-4.22-8.44-7.33l-2.34,1.34c-1.29-1.18-2.78-2-4.29.51l-.85-2.56c-1.32.28-8.75-1.51-12.18-2.27-4.36-1-7.42-4.63-12.45-5.58-2.64-4.1-7.81-5.06-12.52-6.88a144.66,144.66,0,0,1,8.81-18.17c1.68.5,3.51,1.09,5.37,1.61,6.91,1.92,13.58,4.66,20.76,5.71,2,.29,3.87,1.87,5.87,2.68,6.59,2.69,13.52,4.5,20,7.37,3.76,1.64,8.07,1.88,11.18,4.52-1.09,1.66-2.94,3.35-3.34,5.33C896.22,340.07,893.74,341.61,891.17,343.83Zm39.12,17.76c-.57.86-2.36.92-3.93,1.48.4-2.2.71-3.91,1-5.62l-.86-.41c-1,1.43-2,2.87-3.76,5.24-1-2-1.89-3.67-2.72-5.27,1-.89-2-2.48-1.15-4.2h-2.65c1.74,2.15-1.52,4.52,1.64,7H913.3c0,1.93-1.61,1.59-2.49,1.33a28.67,28.67,0,0,1-7.22-2.81c-3.66-2.35-8.8-2-11.49-6.78,2.8-4.56,7-8.79,7.22-14.63l3.24-2.72-.36-.43c.39-.2.78-.57,1.16-.56,6.61.25,12,3.65,17.46,6.85,4,2.34,7.74,5,11.92,7.7C933.39,352.43,933.11,357.28,930.29,361.59Zm2.63,4.3h1.4v.46h-1.4Zm.25,217.87c0-.22-.07-.44-.11-.66l2.3-.55c0,.4.09.81.14,1.21Zm23.56-136h-2.8V447h2.8Zm3.38-74-.44-.44.46-.4C960.35,373.4,960.23,373.55,960.11,373.7Zm.68-1.41h0l.27.27Zm2,.67c-1.3-.77-2.56-1.43-3.71-2.16l-.63-.55.18.25a10.76,10.76,0,0,1-2.21-1.94c-3.91-3.12-5-3.13-6.1-3.13L949,368.31c-.54-1.1-1-2-1.78-3.6l-3.36,4.56-5.64-5.58c-.38-3.06-.92-7.44-1.52-12.26,3.88-.09,6.55,1.25,9.3,2.5s5.64,2.13,9,3.36q1,2.71,2.33,6.6c1.6-.15,3.38.68,5.41-.81,2.45-1.79,4.39,1,6.59,1.59C970.33,370.3,964,369.28,962.82,373Zm11.66-3.34H974v-1.4h.46Zm1.4,4.21h-.46v-1.4h.46Zm27.15-9.75a3.23,3.23,0,0,1,1.21.77l-.44.44-1-1.14.19-.2Zm.88,16.75v1.4h-.47v-1.4Zm-1.11-19.63c.09,1.06.15,1.85.21,2.68a12.25,12.25,0,0,1-2.64,0c-.07-.84-.12-1.45-.2-2.38Zm-6.51,3.17-6.35-4.7C993.34,359.51,995.66,360.88,996.29,364.37Zm-5.93-13.89h1.4v.46h-1.4Zm2.68,1.33v5.66l-3.29-3.12Zm-10.83,3.41,0-.77h6.64v3.69h-4.17l1.51-2Zm3.95,26.55h-1.4v-.47h1.4Zm1.8-5.14h4.79l3.83,2.56L994.22,382C991.54,380.9,988.87,379.91,988,376.63Zm14.35,9.77c-2.08-.44-4.08-1.21-6.12-1.84,0-.23,0-.47,0-.7H1004C1004.79,385.85,1004.12,386.78,1002.31,386.4Zm2.19-34.84-.27-.28a2.18,2.18,0,0,1-.69,1.4c-.14-.15-.29-.29-.44-.44l1.15-1,.27.28a2.22,2.22,0,0,1,.68-1.4l.45.44C1005.26,350.9,1004.88,351.23,1004.5,351.56Zm1.57,4.13,0-1.24h3.72l.06.74Zm66.7-16.65c0,.22.08.44.11.66l-2.29.55c0-.4-.09-.81-.14-1.21Zm-7,16.34c.22-.87.38-1.49.59-2.34h5.06c.08,1,.18,2.24.31,3.75h-9.61c0-.23-.09-.46-.13-.69Zm-14.1-6.82.15,1.21h-2.32l-.11-.67Zm-11.6-.18c1.86-2.5,2.88,1.15,4.62.41.73-.32,2.34,1.39,3.53,2.17a2.22,2.22,0,0,0,.89,1.28l-.44.44-1-1.14.28-.28a32.49,32.49,0,0,0-4.08,1.41l-6.84-1.74-2-4C1037.17,347.57,1039.71,348.81,1040,348.38Zm6.5,7.8c.15-.14.29-.29.44-.44l1,1.15-.18.17,0-.05A3.94,3.94,0,0,1,1046.54,356.18Zm-5.61-1.4.45-.44c.32.38.65.76,1,1.15l-.27.27a2.25,2.25,0,0,1,1.4.68l-.44.44-1-1.14.27-.27A2.28,2.28,0,0,1,1040.93,354.78Zm-24,13.79v.7h-5.6v-.7Zm-2.8-10.62v-.47h1.4V358Zm-.76,30.1c1.24-2.14,1.93-3.34,2.75-4.77l3.07,4Zm23.18-11.42a3.94,3.94,0,0,1-1.27-.83l.44-.44,1,1.14a1.85,1.85,0,0,1-.14.14Zm1.06,1.4-1-1.28a20.64,20.64,0,0,1,2.15-.12C1038.82,377.1,1038.24,377.56,1037.66,378Zm5.23-1.4h-3.49c1.39-2.37,2.91-3.67,6.16-2.05l-3.8.87Zm-.19-8a47.76,47.76,0,0,1-19.4,2.25l-2.14-1.93,2.08-2.09h7.42c.17-1.7.34-3.41.52-5.2l3-1.16-2.93-1.07,1.19-2.43c-.46-.89-1-1.84-1.45-2.8l-7.08,5.87c-2.72-1.64-.92-2.67.2-3.92-.69-.2-1.35-.62-1.89-.5-1.61.33-3.16.88-5.25,1.5v-4.35a38.36,38.36,0,0,0-5.27,1.69c-.14-1.46-.27-2.68-.42-4.21h5.54l.19,2.25a20.49,20.49,0,0,1,2.14-2.47,12.61,12.61,0,0,1,3.5-1.45c1.18-.39,2.4-.65,3.95-1.06v6.9l5.61-6.61c.69,2.16,1.13,3.56,1.58,5,1,.31,2.24.37,3,1,1.73,1.44,3.24,3.15,4.78,4.69h3.14c.19,1.29.37,2.56.6,4.14l3-.36-1.66-3.22,1.1-1.9a14.45,14.45,0,0,1,2.45-.14c.22-1.21.45-2.48.65-3.63l9.56,1.49-5.6,1.14c.1.84.17,1.47.32,2.72a16.29,16.29,0,0,1,3.55-1.62c.48-.1,1.16.83,1.75,1.3l.14-.14-.13.14h0a3.78,3.78,0,0,1,1.27.83l-.44.44-1-1.13c-.54.58-1.13,1-1.22,1.59-.55,3.25-2.11,5.27-5.63,5.27h0c.28.59.55,1.18,1.15,2.44l-2.64.88C1049.46,369.22,1045.94,370.46,1042.7,368.64Zm16.29,1.64c-.25,3.22-1.47,2.17-1.28-1.28C1058.16,369.46,1058.58,369.88,1059,370.28Zm.48,17.7a35.82,35.82,0,0,0-2-3.79c-.93-1.33-2.12-2.44-4-2,.33,1.22.65,2.44,1.09,4.1-.76-.22-2.34-.4-2.37-.74-.25-2.55-2.12-3.13-4-3.76-1.45-3.5,1.63-4.7,3.3-6.59,4.12-.75,5.1,3.24,7.7,4.81l-1.33,1.33c1,2.24,3.56,2.35,5.29,3.54A33.7,33.7,0,0,1,1059.47,388Zm3.88-2.8-.19-.19.06.05a4.11,4.11,0,0,1,.83-1.27c.15.14.3.29.44.44Zm4.91-3.07-1-1.15.27-.27a2.28,2.28,0,0,1-1.4-.69l.45-.44,1,1.15-.27.27a2.25,2.25,0,0,1,1.4.68Zm-2.69-8.59-4.16-5.28-1.16.67c-.72-2.36.12-3.13,1.57-3.49.59-1.76,1.5-3.09,3.94-2.64v4h-2.54c.8,2.75,3.06.77,5,1.6,1,1.33,3.54,2,3.45,5.1Zm7.46-10h-1.4v-.46h1.4Zm.94,29.89h-.47V392h.47Zm12.24-25.09,1,1.11a2.53,2.53,0,0,1-1.39-.67C1085.92,368.65,1086.07,368.5,1086.21,368.35Zm-8.43-2.77c-.36-1-.73-2.05-1-2.9C1078.27,361.84,1078.55,363.1,1077.78,365.58Zm2.93,2c2,1.09,2,1.09.15,5.12a8.26,8.26,0,0,0-1.07-2.49c-.52-.55-1.5-.67-3.06-1.29Zm-4.63,57.85v-3.72l.73-.05c.17,1.25.34,2.5.5,3.75Zm4.15-1.63-1.55-1.56c1.34-1.73,2.84-3,4.7-2.09Zm3.8-50c.93-1.61,2.32-2.56,3.46-4a11,11,0,0,1,2.94.3C1088.14,371.46,1087.6,374.06,1084,373.74Zm6.75,1.49v1.4h-.47v-1.4Zm-4.2,49h-.47v-1.4h.47Zm2.7,1.35c-.2,0-.49-.49-1.5-1.59,1.18.54,2,1,2.69,1.27A5.67,5.67,0,0,1,1089.28,425.62Zm2-.6-.48.17C1089.79,424.61,1090.52,424.81,1091.25,425Zm.83,1.92-1-1.14.12-.12a5.92,5.92,0,0,1,1.3.82Z"/></svg>