<svg id="Layer_1" data-name="Layer 1" xmlns="http://www.w3.org/2000/svg" viewBox="0 0 1048.95 632.52"><defs><style>.cls-1{fill:#deaede;}.cls-2{fill:#ffdeff;}</style></defs><path class="cls-1" d="M353.9,456.89l-13.28,10,.69,1.08L365.73,454l-.63-.79Z"/><path class="cls-1" d="M388.22,436.74c-3.54-2.39-6.17.17-6.11,3.1.5.13,1,.27,1.49.43a12.51,12.51,0,0,0,8.45-.51l1.09-.54A21.65,21.65,0,0,1,388.22,436.74Z"/><path class="cls-2" d="M1048.76,628.88c-2.21-3.35-4.34-7-7.34-9.53-7.3-6.15-11-14.25-13.6-23a259.81,259.81,0,0,1-10.4-68.31c-.28-13.61-.81-27.57-4-40.68-3.42-14-10-27.23-15.56-40.65a11.74,11.74,0,0,0-5.74-5.9,149.66,149.66,0,0,1-15.61-8c-7.13-3.9-15.27-6-23-8.69q-56.48-19.83-113-39.55c-14.9-5.18-29.7-11.82-45.93-4.88-3.87-6.28-11.48-9.35-11.76-17.85-.23-7-5.61-13.62-1.24-21.21-4.4-1.82-4.88-4.52-2.48-6.36-1.31-5.24-2.58-9.25-3.19-13.35-.2-1.35,1.32-3,2.15-4.64-4.66-2.92-5-6.36-.46-9.95-5.53-3.09-5.83-11.72-1-15.25-3.62-1.88-5.94-4.17-2.71-8.29a2.5,2.5,0,0,0,0-2.36c-3.52-4.12-2.34-7.88,1.13-11.62l-4.44-3.39,2.27-3.58c-1.94-3.73-3.54-6.22-4.59-8.93-1.88-4.85-2.72-10.24-5.27-14.66-4.32-7.49-5.58-14.32-3.31-23.2,2.42-9.48,8.32-14,15.85-17.9,4.17-2.18,8.39-4.29,12.66-6.47,2.94,1.69,6,4.57,9.57,5.28,9.57,1.92,17.14,6.62,23.92,13.42a10.52,10.52,0,0,0,8.16,2.64c11.24-2.31,17.35-14.93,13.21-25.89-.46-1.23,0-3,.43-4.36,2.73-8.5,5.78-16.91,8.3-25.48a22.44,22.44,0,0,0,.65-9.5c-1.56-9.75-13.62-15.42-25.15-11.49-4.42,1.51-7.33.86-9.76-2.74-9.09-13.47-19.21-26.39-26.91-40.62-10.87-20.09-19.62-41.31-29.89-61.75C754.42,17.87,747.53,5.63,733.54,0h-2.42c.34,1.15.49,3.2,1,3.3,7.63,1.46,12.29,7,16.14,12.75a248.18,248.18,0,0,1,14,24.52c12.26,23.91,23.91,48.12,36.53,71.83,4.56,8.56,11.21,16,16.9,23.95-12.38,2.58-12.35,2.55-19.16-7.64-17.91-26.8-39.87-49-68.43-65C713,55.31,699.49,43.87,685.39,33.6c-2.58-1.88-4.49-4.67-6.71-7L677,27.92c1.74,2.32,3.21,4.9,5.25,6.92C696.49,49,713.49,59.42,730.83,69.19c15.09,8.49,28.71,18.72,40,31.75,10.16,11.78,19.38,24.36,29.61,37.35-9.1,1.92-16.33,3.4-23.54,5-6.21,1.36-11,4.93-12.09,11.21-1.14,6.77-5.75,9.92-10.52,13.66-11.59,9.08-25,16.6-30.18,31.79-.28.82-1.38,1.43-2.2,2-20.72,14.28-36.07,33.52-50.62,53.71-16,22.24-31.92,44.68-52.49,63.17a58,58,0,0,1-12-15.83c-1.47-2.89-6-4.42-9.19-6.59l-2,1.52c-3.76-12.68-6.43-25.78-11.53-37.95-7.07-16.87-14.22-33.85-27.09-48.1-6.87-7.6-7.77-16.8-2.63-26.5,3.74-7.05,8.72-13.78,11.61-21,1.41-3.54.5-8.45-1.47-11.66-2.55-4.15-8.27-3.27-13.38-1.73-8.8,2.64-16.7,12.59-16.91,21.31-.06,2.43,0,4.85-.09,8.61-3.24-2.39-5.09-3.92-7.13-5.22a18.92,18.92,0,0,0-19.48-1.13c-10.83,5.29-20.36,12.46-25.61,22.05-9.44,17.24-17.35,35-26.25,52.4-3.18,6.23-6.58,12.64-11.32,18.09-7.18,8.24-17.84,13-28.72,11.39-14.06-2.07-27.4-6.49-41-9.94-4.12-1-5.23-3-2.31-6.63,7-8.78,6-17.06,1-25.4-3.85-6.38-12.31-10.31-12.16-18.85,0-.81-1.28-1.8-2.29-2.22-8.24-3.49-16.68-6.29-26.79-3.67-13.26,3.44-23.19,10.58-30.22,20.87-2.89,4.23-5.13,8.74-7.92,13-6.52,10-12.35,20.3-24.91,26.67-3,1.52-4.68,6.6-5.43,10.17-1.07,5-14.34,18.4-19.94,19.86a24.27,24.27,0,0,0-9.91,5c-8.39,7.77-16.14,16.06-24.41,23.94-1.29,1.22-4,1.86-6.06,1.91-4.4.12-15.18,6.92-16.8,10.55a26.43,26.43,0,0,1-5.22,8.07c-4.8,4.71-10.17,9-15.3,13.46-.15-.64-.31-1.27-.46-1.91-3.52.78-8.4.61-10.28,2.53-3.74,3.84-11.52,7.27-6.37,14.32-7.63,2.54-10,13.46-20.53,9.93-12.3,11.07-25.29,20.66-40.84,27.14-20.62,8.6-41.35,17-62,25.43-1.15.47-2.45.67-3.52,1.24-3.81,2-9.3,3.46-11,6.31C6.21,458.08.59,466.57.09,474.6c-1,16,6.94,29.31,20.22,39.56,4,3.1,8.79,3.85,14.37,1,1.31-.67,4.42-.67,5,.09,8.21,10.19,22.1,8.62,34.49,9.81,4.08.4,8.53,0,11.62-4.64,2.21-3.28,5.9-3.16,9.24-.22,2.21,2,6,3.72,9.11,3.56,11.92-.59,23.88-2.07,35.82-3.06,5.73-.48,10.49-1.86,14.48-6.37,2.76-3.12,6.74-6,10.7-.85,1.09,1.42,5.35,1.67,8,1.22,8.93-1.52,17.88-3.24,26.65-5.56,12.46-3.29,26.77-4.81,28.73-18.48,6.18,1.1,11.27,3.46,15.8,2.52,11.31-2.33,22.42-6,33.52-9.45,9.05-2.8,18.15-5.85,20.06-18,2.37.48,3.19,2.68,4.95,3.39,2.64,1.06,6.3,2.19,8.92,1.38q9.06-2.82,18.11-5.74c-14.72,11.79-29.33,23.7-43.2,36.42-2.27,2.08-4.54,4.18-6.81,6.27,21.14.58,42.36-3.65,62.93-9a601.37,601.37,0,0,0,124.08-47.27C508,430,549.18,403.45,595.35,403.32a141.68,141.68,0,0,1,17.85,1.18l.15-.22c10.48-15.07,17.16-32.74,27-48.33q3.17-5,6.34-10c1-.85,2-1.71,3.09-2.58l-.88-.86c13.3-20.72,27-41.18,41.55-61,8.8-12,20.56-21.89,31.23-32.49,1.32-1.32,4.75-2.21,6.14-1.42,2.67,1.51,5.42,3.48,4.63,7.93-2.88,16.21-5.94,32.42-7.78,48.77-2.92,26-5.58,52-6.95,78-.53,10.19,2.71,20.58,4.27,31.19L718.26,415l6.13,5.08a269.5,269.5,0,0,1,34.88,3.35c40.16,7.11,76.08,29.78,103.15,60.54l10,2.14L872,488c-2.25-.24-4.49-.49-6.74-.75q5.61,6.64,10.66,13.72a146.88,146.88,0,0,0,17.28-1.81c5.82-.95,9.63-5,10.68-10.95s.5-11.6-4.91-15.17c-18.94-12.48-38.29-24-59.29-33.12-18.67-8.09-36.28-18.79-53.83-29.22-12.61-7.49-24.42-16.29-40.18-17.27-.11-6.42-5.36-12.65.23-19.25-5.34-3.76-4.39-7.38.47-10.56-4.69-5.05-4.58-6.93.6-10.47-3.65-3.28-3.87-6.24-.25-7.77.84-4.22,1.52-7.59,2.19-10.95,1.87,2.73,2.14,5.32,2.79,7.8,3.76,14.34,7.24,28.77,11.67,42.9,1.2,3.81,4.94,7.24,8.29,9.86s7.81,4.37,11.89,6.21c6.17,2.79,12.43,7.44,18.69,7.5,11.21.09,19.08,6.25,27.91,11,1.76,1,3.46,2.06,5.27,2.92,5.69,2.7,12.57,4.3,11.12,10.81l7.89,6.36,1.89-1.44c4.56,2,8.21,4.41,12.17,5.15,12.22,2.29,24.52,4.22,36.86,5.69,4.22.51,8.64-.75,11.13-1h17c4.1.5,8.57,1.46,12.4.31,8.43-2.54,14.71.2,20.64,5.8a7.13,7.13,0,0,0,5.14,1.56c2.31-.28,4.45-2.07,6.75-2.28,3.47-.31,7.63-.86,10.32.71,1.67,1,1.21,5.68,1.62,8.72.56,4.11.61,8.34,1.61,12.34,3,12.05,7.59,23.85,9.32,36.06,2.4,16.9,4.05,34.49-15.11,45.89,12.39-1.18,21-6.48,27.35-17.15.66,6,1.19,10.49,1.67,15,3,28.14,9.76,54.79,29.67,76.31.71.77,2.35.69,3.55,1C1048.55,631.28,1049.28,629.67,1048.76,628.88ZM341.31,467.94l-.69-1.08,13.28-10,11.2-3.69.63.79Zm42.29-27.67c-.5-.16-1-.3-1.49-.43-.06-2.93,2.57-5.49,6.11-3.1a21.65,21.65,0,0,0,4.92,2.48l-1.09.54A12.51,12.51,0,0,1,383.6,440.27Z"/></svg>