<svg id="Layer_1" data-name="Layer 1" xmlns="http://www.w3.org/2000/svg" viewBox="0 0 1031.64 629.48"><defs><style>.cls-1{fill:#deaede;}</style></defs><path class="cls-1" d="M461.93,356.07q-3.27,3.4-6.43,7l22.71-1.93c.08-.72.15-1.45.23-2.17a53.79,53.79,0,0,0-7.74-2.1C467.86,356.47,464.58,355.64,461.93,356.07Z"/><path class="cls-1" d="M511.89,370.41c-2.8,2.7-7.52,5.1-8,8.15-1,6.32.31,13,.68,19.81l11-1.81c-.61-8.7-1.18-16.74-1.75-24.77Z"/><path class="cls-1" d="M679.79,567.39c7.32-.15,10-5.67,13.7-10.12.92-1.11,1-3,1.39-4.49-1.41-.38-2.92-1.3-4.21-1-7.31,1.42-14.56,3.11-22.19,4.79.63,5.8,1.15,10.69,1.71,15.88C674.09,570.26,676.91,567.46,679.79,567.39Z"/><path class="cls-1" d="M540.26,368.26c-.76,7.51-1.54,13.81-2,20.12-.29,4.19,1.4,6.74,6.77,5.5-.44-7.54-.78-15.05-1.45-22.53C543.52,370.39,541.74,369.57,540.26,368.26Z"/><path class="cls-1" d="M520,369.13c-.67.94-1.93,1.89-1.92,2.82.06,7.11.31,14.21.67,21.31a3.16,3.16,0,0,0,1.67,2.42,3.25,3.25,0,0,0,2.73-1.31,14.15,14.15,0,0,0,1.33-3.54c-.94-7.31-1.65-13.39-2.56-19.44C521.83,370.56,520.71,369.88,520,369.13Z"/><path class="cls-1" d="M551.29,367.48c-3.23-.68-5.28,1.16-4.83,5.17.73,6.5,1,13.05,1.57,20.43,3.16-.15,5.73.09,8.08-.52,1.24-.31,2.94-2.09,3-3.24.14-5.79.4-11.72-.71-17.34C558,370,554,368,551.29,367.48Z"/><path class="cls-1" d="M883.61,360.09q-42.9-1.18-85.81-1.86l-10-8.86-44-39.09q68.79-16.65,137.58-33.38c5.58-1.36,10.77-4.31,16.13-6.53l-.51-1.7c-12.88,1.1-26.23.41-38.56,3.63-40.13,10.5-79.88,22.49-119.94,33.28q-52.89-46.93-105.77-93.88c-1-.92-2-2-3.25-3.24,13.72-20,30-36.75,47.2-52.77C686,147,695.1,138,704.15,129c5.87-5.85,7.77-12.88,5.61-21-.83-3.16-.9-6.52-1.32-9.79L709.72,97l16.54,8.18c.41-2.38.82-3.9.92-5.44.49-7.26,1.32-14.42,2.44-21.5-7.92-18-20.57-38.66-39.6-35.78,1.25-14.15-13.93-27.14-27.71-23.71L660,3.16c-10,11-28.13,13.33-40.65,5.35-2.17-1.39-4.21-3-6.62-4C608.6,3,604,3.88,599.58,4.63A180.45,180.45,0,0,1,518.93,0a154.9,154.9,0,0,0-23.87,23.36c-2,2.44-4.23,5.12-7,6.44-10.28,5-17.8,12.76-24.09,22a66.44,66.44,0,0,1-4.33,5.24c-4-2-7.63-6.66-11.61-2.25-4.39,4.88,0,8.69,3.9,12.55-3.06,3.66-5.9,7-8.69,10.42-4.38,5.36-8.8,10.71-13,16.18a77.13,77.13,0,0,0-10.88,19.81c-5,12.64-11.58,24.73-18.45,36.5C386.39,175.12,379,202.13,375,230.34c-4.47,31.59-5.38,63.36-4.86,95.18.05,3.58,2.23,7.36,4.17,10.61a.41.41,0,0,0,.05.09q-12.86-1.46-25.71-3c-38.07-4.56-76.05-9.86-114.13-14.34q-42.42-5-85-8.7Q87.34,304.77,25,300.44C19,300,12.7,302.87,6.54,304.2c.13.52.27,1,.41,1.55,7.16,0,14.38-.63,21.46.11,33.11,3.5,66.21,7.12,99.26,11.18Q215,327.78,302.3,339.13c30.21,4,60.37,8.34,90.53,12.62,4.78,1.24,8.74,3.28,11.86,7.65a15.31,15.31,0,0,0,8,5.74q2.44.6,4.91,1.17c-79,6.94-157.82,14.77-236.18,27.16a21.71,21.71,0,0,0,6.91,1.75c9,.9,18.2,3.12,27.09,2.3,24.09-2.2,48-6.6,72.08-8.52,64.7-5.15,129.46-9.49,194.2-14.05,5.89-.42,11.83-.06,18.06-.06.39,7.16.79,14.39,1.19,21.79-6.59-.85-12.62-2.91-18.18-2-7.09,1.15-13.76,4.76-20.66,7.18-20.61,7.25-41.23,14.5-61.89,21.61-5.46,1.88-11,3.95-16.68,4.73a83.25,83.25,0,0,0-48,23.78,17.25,17.25,0,0,0-4.43,7.84c-2,8.24-3.13,16.71-5.25,24.93-3,11.51-9.09,20.84-20.28,26.16-5.42,2.58-10.59,5.68-16.06,8.14Q217.29,551.66,145,584.18c-4.33,2-7.28.82-10.18-2.49C120,564.8,105,548.05,90.24,531.1,78.43,517.56,66.86,503.81,55.05,490c6.52-6.87,10.63-14,5.15-23.27L89,459.63c.62-7.9,1.21-15.53,1.85-23.85-2.61.69-4.28,1.08-5.92,1.56C71,441.4,57.08,445.59,43.1,449.49c-4.18,1.17-8.57,1.55-12.68,2.26-.79-2.17-1.27-3.48-2-5.51l-2.67,3.62c-7.15-4.9-7.62-7-3.6-14.51.7-1.31.74-3,1.15-4.47,1.88-6.87,2.65-14.37,6-20.39a40.25,40.25,0,0,0,5-14.4c1.18-8,2.35-16.09,3.46-24.15,1-6.79,1.81-13.59,2.77-20.9-4,.69-7.05,1.52-10.11,1.65-5.85.25-7.88,3.14-8.79,8.86-3.66,22.94-7.79,45.8-12.08,68.64-.69,3.66-3.07,7-5.07,11.38,3.49,4.84,3,7.78-2.78,12.12a7.16,7.16,0,0,1-1.73,1,440.25,440.25,0,0,1,28.26,56.42c4.33,10.46,8.3,21.17,14.4,30.71,4.45,7,10,13.22,15.46,19.43l18.07,20.43c19.24,21.76,41.42,45.06,70.36,47.57,50.9,4.41,82.51-54.84,129.2-75.58,26.87-11.93,57.53-10.36,86.87-8.57,42.93,2.62,87.5,5.69,125.12,26.54a197.15,197.15,0,0,1,29.85,20.85l1-.18,1.05,1.93c4.53,3.81,9,7.75,13.38,11.73a19.55,19.55,0,0,0,5.36.58c8.45-.19,14.21-4.82,18-11.82,1.6-3,1.59-6.74,2.88-9.93a6.43,6.43,0,0,1,3.9-3.13c1-.28,2.5,1,3,1.27,10.27-6.87,22.31-6.52,34.44-10.43l-2.56,11.16,12.1-2.65c-2.78-2.71-1.17-10.47,2.48-11.41,10.75-2.77,21.6-5.11,31.87-7.49.42,2.6.75,4.62,1.08,6.64,2.37-8,4.83-9.62,14.87-9.3.79,3.37,1.74,6.69,2.32,10.07A72.43,72.43,0,0,1,664,579.91c.15,5.19-.28,10.4-.09,15.59.35,10,6.49,17.82,15.08,19.66,9,1.94,17.41-1.93,21.57-10.85,4.65-10,5-20.1-.78-30.06a10.34,10.34,0,0,1-.76-6.66c2-10,12.58-9.64,18.8-14.55,7.68-6,17.5-9.37,26.38-13.89,2.32-1.19,4.61-2.44,6.88-3.65l1.64,3.14c7.23-5.2,14.18-10.12,21-15.15,3.74-2.75,8-5.16,10.88-8.66,5.37-6.48,11-13.14,14.56-20.65,5.49-11.53,2.28-20.1-7.95-27.9-5.82-4.44-14.65-5.63-15.3-15.77l-1.46,1v7.06c-3.33-2.79-5.91-4.47-7.89-6.69q-8.51-9.54-16.61-19.44a55,55,0,0,0-38.24-20.68c-2.1-.22-4.16-.81-6.24-1.23,0-.44,0-.89,0-1.34l5.92-2.67c-3-.22-6.45-.32-8.23,1.37-3,2.9-6.15,2.06-9.55,2.38-10.25,1-15.91-7.62-24-10.94-.61-.25-.33-2.67-.47-4.09-6.38-1.83-6.38-1.83-8.48,3.76q-32.05-2.16-64.24-4.32c-8.15-.54-9.41-2.94-5-9.92,2.72-4.32,5.55-8.57,8.56-13.22l-18.82,13.57,3,.14-6.61,9.12c-3.45,0-7.69,0-11.94,0-2.52,0-3.93-.62-2.14-3.34l-2.7-20.7,1.77,1.09c1.52-.92,3-1.81,4.55-2.75,2.23-1.41,5.43-4.57,6.49-4,4.08,2.33,7.33-.07,11-.41,7.85-.74,15.77-1.95,23.58.9,2.08.75,4.6.41,6.92.38,57.16-.74,114.33-1.9,171.5-2.13H790c40.44,36.12,75.88,66,80.89,66.74-.55-5.95-3.41-10.33-7.62-14.05q-29.79-26.34-59.56-52.7,48.66.1,97.31,1.67c41.44,1.26,82.86,3.56,124.29,5.36a45.56,45.56,0,0,0,6.34-.58C982.23,365.75,933,361.46,883.61,360.09ZM690.67,551.73c1.29-.25,2.8.67,4.21,1-.44,1.52-.47,3.38-1.39,4.49-3.69,4.45-6.38,10-13.7,10.12-2.88.07-5.7,2.87-9.6,5-.56-5.19-1.08-10.08-1.71-15.88C676.11,554.84,683.36,553.15,690.67,551.73ZM478.21,361.1,455.5,363q3.15-3.55,6.43-7c2.65-.43,5.93.4,8.77.76a53.79,53.79,0,0,1,7.74,2.1C478.36,359.65,478.29,360.38,478.21,361.1Zm26.36,37.27c-.37-6.83-1.65-13.49-.68-19.81.48-3.05,5.2-5.45,8-8.15l2,1.38c.57,8,1.14,16.07,1.75,24.77Zm18.62-4a3.25,3.25,0,0,1-2.73,1.31,3.16,3.16,0,0,1-1.67-2.42c-.36-7.1-.61-14.2-.67-21.31,0-.93,1.25-1.88,1.92-2.82.67.75,1.79,1.43,1.92,2.26.91,6.05,1.62,12.13,2.56,19.44A14.15,14.15,0,0,1,523.19,394.37Zm15.1-6c.43-6.31,1.21-12.61,2-20.12,1.48,1.31,3.26,2.13,3.35,3.09.67,7.48,1,15,1.45,22.53C539.69,395.12,538,392.57,538.29,388.38Zm20.79.94c0,1.15-1.73,2.93-3,3.24-2.35.61-4.92.37-8.08.52-.54-7.38-.84-13.93-1.57-20.43-.45-4,1.6-5.85,4.83-5.17C554,368,558,370,558.37,372,559.48,377.6,559.22,383.53,559.08,389.32Zm7.42-48.77c-1.52-1-4.43-.07-6.67.24-3.32.46-6.74,2-9.89,1.57-6.14-.91-13.35,2.32-18.27-4.08-5.32,2.15-13.06-3.19-16.39,5.36-.29.74-2,1.3-3,1.3-3.44,0-6.88-.33-10.32-.41-4-.09-9-1.59-11.82.24-6.27,4.09-12.37,2.7-18.69,2,22.6-20.85,48.81-36.49,77.9-48.09a53.29,53.29,0,0,0,11.18-6.07c5.28-3.75,6-7.67,3.06-13.44-.56-1.1-1.27-2.14-1.84-3.24-2.36-4.58-1-7,4.06-6.45,4.37.47,8.63,2,13,3,6.84,1.55,9.26.59,12.91-5.25q15.54-24.86,31-49.72c.55-.87,1.22-1.66,2.32-3.13,34.85,31.36,69.81,62.25,104.22,93.67-3.76,1-7.52,2-11.28,2.94-44,11.3-87.75,24.19-132.92,30.59C578.8,342.46,572.63,344.57,566.5,340.55Zm59.59,15.23c-13.16-.21-26.32-.73-39.47-1.27-2.18-.09-4.32-1.06-6.49-1.62,0-.73,0-1.46,0-2.2a72.39,72.39,0,0,1,7.19-2.56L734.17,312.6q6.23,5.7,12.44,11.43c12.3,11.38,25,22.91,37.28,34C731.29,357.16,678.69,356.63,626.09,355.78Z"/></svg>