<svg id="Layer_1" data-name="Layer 1" xmlns="http://www.w3.org/2000/svg" viewBox="0 0 1134.42 591.36"><defs><style>.cls-1{fill:#88cfff;}</style></defs><path class="cls-1" d="M1129.37,407.45c-8.61-7.13-17.25-14.3-26.4-20.7-2.9-2-7.61-2.7-11.27-2.23-8.2,1.07-16.26,3.24-24.89,3.49,3.43-1.14,6.92-2.12,10.27-3.44,9.39-3.69,10.49-10.51,2.72-16.66-5.78-4.58-11.88-8.79-17.44-13.63-7.53-6.55-15.34-11.27-27.17-5.88l4.7-12.35c-11.15-8.37-22.17-17.39-34-25.11-3.62-2.35-9.56-1.13-15.43-1.63,7.19-8.91,0-12.67-6-16.91a46.23,46.23,0,0,1-6.22-4.78c-10.29-10.27-21.61-15.76-36.87-11.87-8,2-9.79-.38-7.42-8.4,3.5-11.83,7.87-23.43,12.4-34.92.76-1.94,4.07-3.71,6.42-4,7.06-1,14.3-.8,21.32-2a13,13,0,0,0,8.07-5c6-9.44,11.31-19.32,16.85-29.06,3.47-6.09,2.57-8.41-4.36-9.81-3.93-.8-8-.7-12.06-1.08-2.44-.22-4.86-.57-7.29-.86l-.12-2.42c3.51-.59,7-1.25,10.52-1.74A22.07,22.07,0,0,1,992,176c13.08,2.09,20.47-4.13,25.25-15.75,2.88-7,7.42-13.31,11-20,3.26-6.09,2-9.07-4.86-10.61-5.22-1.17-10.65-1.4-16-2.05l-.66-2c2.23-1,4.4-2.63,6.71-2.87a76.11,76.11,0,0,1,15.67-.39c6.87.72,11-1.86,14.1-7.89,6-11.56,12.49-22.86,19.88-36.26-8.28-1.91-15-3.76-21.8-4.94-3.89-.67-6.58-1.31-5-6.13a4.76,4.76,0,0,0-.22-3.37c-3.35-6.13-24.18-6.66-27.08-.37-2.79,6-6.65,7.18-12.91,6.7Q809.08,55.55,622,41.36c-9.37-11-20-20.59-32.77-27.21C566.79,2.54,540.54,1.68,515.29,1.07L470.67,0q-6,7.29-12.35,14.29Q508,16,557.63,18.7c13.21.73,27.34,1.84,37.73,10,6.52,5.14,10.81,12.53,14.94,19.74q12.48,21.77,25,43.52,4.37,10.64,8,21.54l4.4.09,5.25,9.15-6.76-.14A319.52,319.52,0,0,1,658,181.72c.15,1.4.25,2.81.38,4.21q14-.47,28.05-.89a27.7,27.7,0,0,1,.85,6.42l-22.2.8a71,71,0,0,0-24.93.19c-15.32,2.59-30.25,8.12-45.79,8.2-16.83.09-32.93-6.21-49.35-9.91-33.69-7.6-68.73-4.27-103.26-4.36-36.32-.1-72.51-4-108.65-7.65-27-2.71-54.14-5.25-81.26-5.94C200,209,150.38,248.67,114.4,299c1.77-.39,3.54-.85,5.33-1.14,5-.8,10-.25,15.06.3L169.54,302a11,11,0,0,1,3.94.94c2,1,3.13,3.15,4.15,5.15l8.07,15.67c4.49,8.71,9.11,18.13,7.84,27.85a6.89,6.89,0,0,1-1.15,3.35c-1.73,2.23-5.06,2-7.87,2-4.51.08-8.89,1.45-13.36,2a77.5,77.5,0,0,1-14.29.07L142,358.2l-42-2.42a105.82,105.82,0,0,1-17.17-1.94C61.16,400.42,45.18,451.16,6.1,483.6c-2,1.66-4,3.32-6.1,5q.72,13.47,1.32,27c.61,13.74-.06,28.11,1.68,41.75,1.8,14.12,12.46,9.38,25.17,9.11,15.74,16.23,42.91,19.85,62.35,8.29,16-9.48,26.61-27.58,44.38-32.94,9.72-2.93,20.13-1.54,30.19-.28A1004.75,1004.75,0,0,0,325,548.67c14.45-.5,32.39.71,38.25,13.92L370,550.67l67.17,4.08c7.26.44,16.81-.75,18.27-7.87,13.82,9.14,31.63,8.51,48.19,8A854.59,854.59,0,0,1,627,560.28c-3.71,17.15,18.53,27.46,36,29.36a292.64,292.64,0,0,0,82.68-2.76q1.39-22.47,2.8-45,70.8-22.17,141.54-44.51c4.36-1.38,6.9-.29,10,2.51,28,25.51,56.13,50.77,84,76.38,7.56,7,15,7,23.45,2.42,10.27-5.51,11.89-11.63,3.35-19.33-5.73-5.17-4.77-8.64-1.12-14.13,21.49-32.33,42.66-64.88,64-97.31,2.3-3.49,5.09-6.66,7.73-10.08,1.56,1,2.39,1.42,3.12,2,11,8.36,19,7.57,28.06-2.87.91-1.05,2.39-2.64,2.12-3.51-2.08-6.69,3.06-7.32,7.1-8.9,1.78-.7,3.62-1.24,5.35-2C1136,418.47,1136.83,413.64,1129.37,407.45Zm-991.93,76c-21.14,2.77-44,5.22-62.51-5.44-3.05-1.76-5.94-3.86-9.26-5.05-1.74-.62-3.65-1-5-2.23a10.77,10.77,0,0,1-2.54-4.29c-2.85-7.22-10.92-18.37,1.23-18.59,9.46-.18,18.94,1.65,28.32,2.53q10.73,1,21.5,1.07c6.88,0,14.31-.12,19.91,3.89C137.36,461.32,137.8,473.29,137.44,483.49ZM937,181.57c-50.13,2.1-100.26,4.3-150.4,6.22a19.42,19.42,0,0,0-2.85-5.31c53.64-1.23,107.3-2.23,161-3.29A13.87,13.87,0,0,1,937,181.57ZM743.36,299.62a201.34,201.34,0,0,0-20.16-39.83,69,69,0,0,1-6.48-12.35q73.06-5.92,146.13-11.81c17.31-1.4,34.64-2.47,52.52-3.72-3.27,13.18-7.21,25.26-9,37.64-1.16,8-4.18,10.29-11.74,11.23Q819,290.11,743.36,299.62ZM666.69,114.06q146.84,3.43,293.67,7.08c5.59.14,11.17.91,16.75,1.39-4,3.54-181,2.78-306.62.57Q668.59,118.59,666.69,114.06Zm29.67,70.68,16.39-.46a69.27,69.27,0,0,0-7.68,6.54L699,191ZM222.92,316c14.27-3.87,29.44-1.94,43.85,0l53.36,7.08c6.56.87,13.12,1.74,19.7,2.38C407.29,332,477.2,315,542.23,334c-4.23,13.29-14.88,25.2-28.6,27.73-7.38,1.36-14.95,0-22.45-.35-23.1-1.05-46.48,7.71-69.05,2.62-5.2-1.18-10.24-3.08-15.49-4a83,83,0,0,0-15.92-.87c-31.39.36-62.73,2.4-94.11,3.23a30.57,30.57,0,0,1-8.33-.56c-3.18-.81-6-2.61-8.91-4.11a50.91,50.91,0,0,0-31.47-4.89c-3.72.63-7.52,1.67-11.22.92-4.77-1-8.42-4.74-11.74-8.31-4.79-5.15-10-11.05-11.52-18.14C211.73,319.3,215.81,317.94,222.92,316ZM452.79,512.24c-7.35,1.63-14.68,4.17-22.19,3.67-5.12-.34-10-2.08-15-3.36-33.08-8.49-68.3,3.62-102-1.64-14.4-2.25-28.18-7.62-42.61-9.67-10.09-1.44-20.34-1.23-30.54-1l-24.22.51c-7.79.16-21.36,1.25-27.69-4.51-5.68-5.16-1-23,.28-30.26.73-4.08,1.73-8.36,4.59-11.35s7.1-4.21,11.17-5c12.89-2.6,26.15-2.61,39.3-2.43q62.75.83,125.29,6.74c3.92.37,7.92.76,11.78-.09,3.45-.75,6.62-2.46,10-3.55a29,29,0,0,1,14.71-.81c2.57,3.69,7.92,4.11,12.3,3.1s8.59-3.1,13.08-3.1c6.72,0,12.54,4.53,19.06,6.11a44.51,44.51,0,0,0,9.72.86l63.64.89c11.56.17,24.92,1.23,31.57,10.68,7.66,10.88,1.78,26.09,4.87,39C525.45,517.28,487.82,504.47,452.79,512.24Zm110.1-146.3c-3.87-4.44-2.09-13.72-.07-18.5,2.34-5.55,6.59-10.08,9.31-15.45,1-2,1.8-4.06,2.86-6,5.94-11,19.71-15.94,32.08-14.46,4.15.49,8.2,1.6,12.32,2.33a138.75,138.75,0,0,0,20.27,1.63c7.19.23,14.39.46,21.58.6.48,7,1.14,14,2,20.93a356.69,356.69,0,0,0,7,36.69,54.93,54.93,0,0,1-6.78.38c-7.54-.09-15-2.1-22.5-2-3.14,0-6.25.41-9.37.71a195,195,0,0,1-49.8-1.5C576.6,370.41,566.66,370.28,562.89,365.94Zm130.67,109.4-9.84,10.73c-5.33,5.81-11.07,11.87-18.66,14a42.34,42.34,0,0,1-11.47,1.06l-21,0c-5.33,0-13.86,1.69-18.85-.42-7.77-3.27-5.72-19-1-24.16,3.86-4.24,10-5.35,15.66-6.23A212.81,212.81,0,0,1,651,467.68c6.53-.29,13.07,0,19.6.33l26.67,1.27C696.89,471.66,695.19,473.57,693.56,475.34Zm59.28-4c.06-1.09.13-2.18.2-3.27l82.69-21.25C829.2,450.45,793.28,460.7,752.84,471.33ZM881,437.87l-.69-2.72,145.37-37c.27.89.55,1.79.83,2.68Zm107.66,93c-2.66,4.17-5,2-7.47-.19Q964.56,515.47,948,500.28c-5.18-4.76-10.3-9.58-16.8-15.63l105.71-33.48,1.3,2.11Q1013.42,492.06,988.62,530.83Z"/></svg>