<?xml version="1.0" encoding="utf-8"?>
<!-- Generator: Adobe Illustrator 26.0.1, SVG Export Plug-In . SVG Version: 6.00 Build 0)  -->
<svg version="1.1" id="Layer_1" xmlns="http://www.w3.org/2000/svg" xmlns:xlink="http://www.w3.org/1999/xlink" x="0px" y="0px"
	 viewBox="0 0 2750.11 1596.17" style="enable-background:new 0 0 2750.11 1596.17;" xml:space="preserve">
<style type="text/css">
	.st0{fill:none;stroke:#020203;stroke-width:0.7087;stroke-miterlimit:10;stroke-dasharray:11.3386,8.5039;}
</style>
<g>
	<line class="st0" x1="229.24" y1="0" x2="229.24" y2="1596.17"/>
	<line class="st0" x1="2505.99" y1="0" x2="2505.99" y2="1596.17"/>
	<line class="st0" x1="2278.31" y1="0" x2="2278.31" y2="1596.17"/>
	<line class="st0" x1="2050.64" y1="0" x2="2050.64" y2="1596.17"/>
	<line class="st0" x1="1822.96" y1="0" x2="1822.96" y2="1596.17"/>
	<line class="st0" x1="1595.29" y1="0" x2="1595.29" y2="1596.17"/>
	<line class="st0" x1="1367.61" y1="0" x2="1367.61" y2="1596.17"/>
	<line class="st0" x1="1139.94" y1="0" x2="1139.94" y2="1596.17"/>
	<line class="st0" x1="912.26" y1="0" x2="912.26" y2="1596.17"/>
	<line class="st0" x1="684.59" y1="0" x2="684.59" y2="1596.17"/>
	<line class="st0" x1="456.91" y1="0" x2="456.91" y2="1596.17"/>
	<line class="st0" x1="2750.11" y1="1401.79" x2="0" y2="1401.79"/>
	<line class="st0" x1="2750.11" y1="1174.09" x2="0" y2="1174.09"/>
	<line class="st0" x1="2750.11" y1="946.39" x2="0" y2="946.39"/>
	<line class="st0" x1="2750.11" y1="718.69" x2="0" y2="718.69"/>
	<line class="st0" x1="2750.11" y1="490.99" x2="0" y2="490.99"/>
	<line class="st0" x1="2750.11" y1="263.29" x2="0" y2="263.29"/>
</g>
</svg>
