<svg xmlns="http://www.w3.org/2000/svg" viewBox="0 0 72.38 65.96"><g id="Layer_2" data-name="Layer 2"><g id="Layer_1-2" data-name="Layer 1"><path d="M68.61,56.86c-.16-.27-.34-.53-.48-.8,0,0-.06-.12-.12-.23s-.28-.67-.3-.74c-.92-2.39-1.69-4.84-3.35-6.83a7.53,7.53,0,0,0-8-2.42,10.62,10.62,0,0,0-2.73,1.28c-.06-.07-.12-.13-.18-.21a11.36,11.36,0,0,0-1.43-1c-.9-.73-1.76-1.52-2.59-2.33a35.32,35.32,0,0,1-4-4.64,25.3,25.3,0,0,0,1.65-7.38c.22-2.37.21-4.75.39-7.12,0-.16.1-1,.1-1.15l.29-.06a14.77,14.77,0,0,0,1.49-.38c4-1.36,7.08-4.28,9.84-7.42a59.92,59.92,0,0,1,4.37-4.64l.38-.32.06,0,1.29-.78.08,0,.38-.13.73-.19h.12a4.71,4.71,0,0,0,4.61-4.61c0-2.36-2.11-4.79-4.61-4.61-4.89.35-8.62,3-11.85,6.51C53.46,8,52.18,9.58,50.77,11c-.6.61-1.22,1.21-1.87,1.75.12-.11-.76.52-.9.61s-1.27.6-.88.47c-2.87,1-5.55,1.23-7.35,4.16-1.54,2.51-1.46,5.9-1.58,8.75,0,.94-.08,1.88-.13,2.81a9.52,9.52,0,0,0-4-1.27l-.52,0A9.3,9.3,0,0,0,34,26.5c.86-4.65-1.74-8.93-5.48-11.51s-8.34-3-12-5a22.56,22.56,0,0,1-8-7.36A4.71,4.71,0,0,0,2.29,1,4.65,4.65,0,0,0,.64,7.27a33.34,33.34,0,0,0,8.71,9.05c3.35,2.38,7.14,3.68,11,5a9.82,9.82,0,0,1,3.86,2c.57.6.21.07.6.79,0,.05.25.69.18.43.27.89,0,.38,0,.15,0,.08-.37,1.09-.51,1.44-.75,1.93-1.37,3.83-.87,5.92a7.08,7.08,0,0,0,5.26,5.16,13.84,13.84,0,0,0,3,.29h.94l.69.07.22.2c.14.18.32.42.53.73-2.43,1.35-5.06,2-7.46,3.64a14.25,14.25,0,0,0-3.57,3.48,16.32,16.32,0,0,0-8.55.29,11.25,11.25,0,0,0-6.34,4.31c-1.52,2.27-3,4.58-4.44,6.87A4.66,4.66,0,0,0,5.6,63.36a4.7,4.7,0,0,0,6.31-1.65L16,55.32a7,7,0,0,1,7.54.24c3,1.88,6.89-.57,6.93-4,0,0,0-.24,0-.37a2.9,2.9,0,0,1,.47-.66,8.29,8.29,0,0,1,2.54-1.7c1.82-.88,4-1.56,5.87-2.71.85,1.07,1.74,2.11,2.69,3.1,2.88,3,6.83,6.92,11.21,7.15a8.27,8.27,0,0,0,3.95-.8l.65-.31,0,0v0l.37.94c.53,1.39,1,2.8,1.68,4.14A9,9,0,0,0,67.77,66a4.66,4.66,0,0,0,4.61-4.61A4.6,4.6,0,0,0,68.61,56.86ZM64,10.44c-.23.18-.26.17,0,0ZM31.09,28.31l0,0S31.08,28.33,31.09,28.31Zm1.6,2.21a.06.06,0,0,1,0,.06S32.68,30.55,32.69,30.52Zm.74,6.89,0,0C33.25,37.34,33.16,37.21,33.43,37.41ZM47,23.41h0S46,23.65,47,23.41Zm6.83,23.83c.09,0,.14-.06.13,0C54,47,54.92,48.5,53.78,47.24Zm3.65,7.09c-.38-.39-.18-.25,0,0ZM57.16,54a2.93,2.93,0,0,0,.3.34h0A1.3,1.3,0,0,1,57.16,54Zm11.19,2.77-.16,0-.08,0C68.62,56.8,68.55,56.83,68.35,56.81ZM68,56.75h0l-.25,0Zm.72.32,0-.06C69.06,57.25,68.94,57.27,68.72,57.07Z"/></g></g></svg>